<svg xmlns="http://www.w3.org/2000/svg" viewBox="0 0 1650 1653.887" xml:space="preserve"><g fill="none" stroke="#000" stroke-width="2" stroke-miterlimit="10"><path d="M783.98 1625.022c-56.266-1.597-105.883-8.735-140.88-27.669-27.864-15.107-42.416-45.818-33.182-74.94M614.003 1594.841c-200.484-66.978-370.088-248.165-446.531-469.782"/><path d="M773.922 1624.661c-93.766-4.12-177.95-31.35-194.445-85.054-8.355-27.363.048-62.347 18.963-97.435 22.689-42.044 58.705-85.749 102.724-132.385"/><path d="M697.673 1616.342c-121.279-21.686-229.942-90.117-287.808-190.217-61.024-105.786-72.397-248.876-47.652-396.376M812.098 1625.263c-33.908.319-62.97-.549-84.919-5.226-14.768-3.154-22.026-12.883-15.34-19.328 12.833-12.339 39.538-22.878 75.231-36.387 44.92-16.996 99.069-35.008 160.436-55.954M825 1625.061"/><path d="M819.788 1625.159c-34.317.591-62.77 5.262-68.834-3.408-4.354-6.376 31.097-10.879 74.045-19.297 59.308-11.622 131.938-25.058 212.272-43.808 83.137-19.412 162.901-40.842 228.632-71.531"/><path d="M803.158 1625.3c-49.908-.075-92.129-2.626-118.345-16.231-16.663-8.675-13.517-32.948 9.094-51.598 35.154-28.959 91.225-57.35 161.094-91.604 81.913-40.154 174.267-82.617 271.02-131.407"/><path d="M766.235 1624.278c-72.804-4.091-137.739-19.595-177.088-54.244-34.272-30.248-42.938-84.863-23.856-137.917 24.116-66.899 78.183-138.027 145.929-215.421 76.339-87.184 165.323-175.648 255.866-269.722"/><path d="M815.206 1625.229c-49.045.627-95.147.431-92.21-12.039 1.618-6.693 15.684-12.12 34.372-18.987 25.233-9.269 57.558-18.843 96.066-30.009 93.062-26.982 202.468-56.785 316.263-97.127 111.487-39.543 212.519-81.603 276.467-140.954"/><path d="M797.862 1625.275c-76.75-.659-146.465-14.54-146.682-46.133-.071-17.522 18.129-38.03 44.002-59.063 33.132-26.917 77.443-54.354 129.818-84.821 59.117-34.384 125.035-70.237 195.139-109.349 73.332-40.915 148.093-83.531 221.157-129.568 141.488-89.174 266.354-182.411 334.38-290.739M614.003 1594.841c-183.342-61.242-341.774-217.568-424.915-413.428-85.963-202.934-93.772-442.863-21.616-652.585"/><path d="M727.242 1620.802c-86.934-10.761-166.055-42.43-217.235-96.1-49.821-52.339-73.593-131.175-69.208-214.918 5.032-95.031 39.985-198.971 89.539-306.712 53.23-115.667 120.585-230.13 189.477-344.39"/><path d="M667.138 1610.011c-96.911-22.921-186.497-73.611-253.855-145.739-68.855-73.82-116.725-171.797-140.138-279.341C223.038 954 278.027 690.698 388.801 461.67"/><path d="M614.003 1594.841c-141.224-47.157-268.79-149.959-356.383-284.353-90.618-139.222-139.521-310.674-139.569-483.544.048-172.87 48.952-344.322 139.569-483.544 87.593-134.394 215.159-237.196 356.383-284.353"/><path d="M694.614 1615.787c-133.318-24.613-251.268-107.503-306.985-224.797-59.949-126.511-58.772-292.698-18.94-461.027 42.739-180.28 122.552-354.109 210.838-513.323 41.127-74.146 82.262-141.375 120.952-201.465 34.133-53.007 64.376-97.354 89.133-133.156"/><path d="M650.207 1605.742c-143.267-38.455-270.813-139.73-347.341-275.35-80.614-143.104-109.995-323.224-92.047-503.448 18.407-183.877 82.837-361.406 178.96-507.557C478.283 184.965 590.181 83.385 705.831 44.206"/><path d="M770.659 1624.51c-86.713-4.257-164.24-25.959-192.459-73.943-26.873-45.891 1.425-121.745 57.108-195.758 33.715-44.784 75.754-90.782 123.112-139.139 50.704-51.766 105.928-104.496 163.119-159.297 117.456-112.546 234.22-224.343 327.792-343.086"/><path d="M730.894 1621.241c-104.589-12.26-198.658-57.058-243.837-130.913-46.272-75.84-43.65-186.868-8.439-300.623 40.843-131.732 116.418-267.071 200.754-406.223 85.04-140.289 172.292-271.016 238.786-396.118"/><path d="M796.918 1625.266c-45.957-.45-86.158-4.047-116.254-15.237-22.717-8.464-36.849-27.444-30.507-44.738 8.934-24.254 38.617-49.108 78.077-76.878 48.895-34.396 109.922-69.905 179.275-109.522 156.798-89.565 328.219-181.95 477.088-297.097 68.794-53.24 128.302-108.556 170.921-167.636 38.303-53.145 61.913-110.656 63.224-165.632"/><path d="M774.22 1624.674c-58.038-2.517-109.905-11.702-147.854-32.806-31.906-17.776-52.097-50.188-49.035-83.994 3.723-40.627 31.421-86.585 70.832-135.168 46.712-57.551 107.835-116.75 176.837-180.485 151.913-140.294 318.631-278.799 449.562-435.079 59.428-70.977 107.617-142.032 135.846-212.911 25.329-63.683 33.11-128.822 19.054-185.635"/><path d="M737.077 1621.929c-67.997-7.21-130.334-26.18-177.461-59.559-44.097-31.278-75.34-78.927-85.657-132.669-11.203-58.586-1.135-127.099 22.441-198.456 26.288-79.479 68.057-161.776 117.653-246.795 105.749-181.203 233.529-351.836 331.516-521.712 43.417-75.305 78.06-145.583 95.561-210.713 14.884-55.487 15.378-108.094-4.929-145.748"/><path d="M701.871 1617.074c-146.064-24.974-272.37-123.742-315.879-258.596-23.504-73.048-28.264-157.082-18.636-244.633 10.298-93.374 36.21-189.924 71.56-286.902 36.232-99.344 81.202-196.09 129.534-289.385 46.734-90.192 94.699-173.37 139.483-249.51 39.988-67.983 75.135-126.05 101.438-175 20.081-37.383 35.48-65.502 30.893-80.876"/><path d="M771.841 1624.567c-68.459-3.228-129.25-15.9-167.309-45.976-32.147-25.464-41.634-73.384-24.256-119.192 22.35-58.773 73.484-121.122 138.176-189.384 73.94-77.996 161.031-157.611 251.569-243.124 92.367-87.245 182.639-174.677 260.312-265.998 72.031-84.724 129.942-169.119 159.736-252.817 26.205-73.747 27.167-149.752-.136-211.045-27.76-62.18-83.276-114.188-149.887-153.71"/><path d="M747.568 1622.943c-78.381-6.867-149.203-29.035-194.504-71.183-41.992-39.146-59.967-102.854-50.079-168.785 11.725-77.816 53.142-162.914 108.445-252.882 61.2-99.52 136.276-199.658 213.57-303.149s152.37-203.63 213.571-303.148c55.303-89.968 96.719-175.066 108.445-252.882 9.888-65.932-8.087-129.64-50.078-168.785-45.302-42.148-116.123-64.316-194.504-71.184M580.954 1586.834c-224.578-72.236-414.637-251.349-500.051-471.253"/><path d="M580.954 1586.834c-205.785-66.182-383.212-221.256-476.342-416.332C11.641 975.351 2.81 739.873 80.903 538.306"/><path d="M580.954 1586.834c-316.759-101.95-553.862-427.128-554.072-759.89.21-332.762 237.312-657.94 554.072-759.89"/><path d="M372.719 1482.572c22.697 5.077 56.995 7.821 101.515 10.563 53.829 3.312 115.735 5.496 184.05 6.903"/><path d="M423.252 1518.245c-99.305-55.922-179.574-139.29-206.671-238.048"/><path d="M372.08 1484.761c-13.469-14.031 2.537-40.91 37.785-58.635 24.367-12.242 54.844-23.723 90.558-35.581 40.484-13.438 86.055-26.7 136.091-40.485"/><path d="M407.995 1509.4c-91.839-54.964-160.531-140.899-163.502-234.953-1.547-50.392 12.954-104.886 38.957-158.982 28.618-59.482 70.456-119 120.395-178.78"/><path d="M372.719 1482.572c19.224 4.301 47.355 6.86 83.459 9.38 43.53 3.036 93.779 5.201 149.721 6.803 124.332 3.556 256.684 3.937 385.816 1.283"/><path d="M372.719 1482.572c14.414 3.225 34.38 5.417 59.419 7.536 29.881 2.527 64.362 4.502 103.005 6.153 87.841 3.75 186.165 5.432 289.856 5.433 103.691-.002 202.015-1.684 289.856-5.433 38.643-1.651 73.124-3.626 103.005-6.153 25.039-2.119 45.005-4.311 59.419-7.536"/><path d="M370.835 1483.012c-1.771-7.894 18.573-15.798 45.574-22.721 38.133-9.768 88.177-18.419 148.882-28.174 70.358-11.304 149.18-22.823 234.527-35.722 89.915-13.591 182.103-27.889 273.895-44.035"/><path d="M382.547 1493.067c-38.414-27.131-64.527-65.889-59.528-103.892 5.831-43.877 45.598-90.542 101.559-136.021 68.502-55.633 157.551-109.006 258.822-165.64 109.475-61.213 225.678-121.354 341.12-184.946"/><path d="M370.975 1482.545c5.758-4.039 19.241-5.514 38.253-8.046 25.163-3.35 56.512-6.472 93.749-9.956 42.802-4.005 90.773-8.177 143.353-12.841 56.569-5.018 116.402-10.408 178.669-16.444 128.451-12.454 255.842-26.245 373.974-44.374 53.672-8.241 102.525-16.962 145.523-27.021 37.141-8.694 67.851-17.6 90.069-28.982"/><path d="M374.07 1486.612c-14.768-12.715-22.17-30.932-16.068-46.281 7.61-19.073 30.061-37.202 60.148-55.03 37.291-22.083 84.872-42.978 140.637-64.867 62.821-24.653 132.948-49.129 208.667-74.866 162.912-55.37 333.136-109.729 493.444-173.71 74.65-29.803 143.09-60.15 202.537-93.06 52.861-29.277 96.882-59.471 126.48-92.835"/><path d="M492.76 1553.082c-167.232-74.628-306.999-210.509-372.915-377.001-66.791-169.113-57.752-371.689 13.705-554.38"/><path d="M404.563 1507.331c-59.132-35.933-108.246-82.237-132.65-137.207-23.88-53.909-22.673-120.69 1.233-185.193 27.346-73.654 80.373-148.074 146.965-223.084 72.768-81.933 158.501-161.167 248.398-241.081"/><path d="M454.778 1535.044c-185.993-94.036-320.364-282.23-319.085-485.468 1.662-224.574 132.468-456.555 295.841-654.349"/><path d="M523.25 1565.996C234.445 1449.825 28.135 1140.757 42.388 826.944 57.43 504.378 279.435 196.587 562.236 78.532"/><path d="M446.095 1530.595c-122.546-63.742-223.732-163.964-266.826-285.406-43.937-124.166-27.449-274.951 31.549-418.245C274.744 671.9 378.872 527.829 491.931 396.275c54.03-62.851 107.904-120.007 158.834-172.024 46.098-47.078 87.519-87.551 122.119-122.264"/><path d="M489.948 1551.822c-151.057-68.037-279.547-185.373-349.317-331.057-70.26-146.995-80.523-325.821-35.159-494.311 47.047-174.323 146.775-335.277 271.335-462.989 59.498-60.962 122.96-112.543 187.632-152.696 59.751-37.075 119.045-63.523 174.857-75.861"/><path d="M384.062 1494.127c-46.808-32.511-76.016-82.769-63.345-129.307 15.78-57.655 76.803-115.863 157.901-175.115 97.546-71.23 217.341-139.465 346.849-212.693 133.627-75.555 266.118-148.906 384.724-227.511"/><path d="M411.073 1511.229c-85.62-50.567-153.317-124.515-170.192-209.938-17.607-89.631 18.897-196.628 85.786-299.173 76.829-117.674 185.493-229.644 301.787-342.48 115.54-112.089 228.303-213.228 317.491-312.399"/><path d="M375.182 1487.543c-18.437-15.096-28.597-36.695-22.257-55.45 7.801-22.978 33.679-45.307 68.643-67.225 43.351-27.158 98.922-52.953 163.853-80.106 72.756-30.418 153.425-60.645 239.579-92.541 181.82-67.311 365.455-132.43 526.759-210.667 71.766-34.825 134.479-70.205 183.35-109.077 41.645-33.149 72.281-69.233 81.57-105.891"/><path d="M387.563 1496.517c-38.108-25.623-68.245-57.758-78.404-94.089-10.034-36.021.893-79.702 27.099-120.277 31.356-48.49 81.637-96.088 143.177-144.894 69.087-54.77 149.36-108.457 235.933-163.926 181.773-116.448 367.114-223.571 516.967-343.215 65.121-52.021 119.143-103.443 154.496-156.267 30.174-45.134 45.153-93.321 38.354-135.28"/><path d="M413.369 1512.578c-107.694-63.014-186.093-167.67-183.212-280.103 1.629-61.426 23.029-127.162 57.584-192.445 37.866-71.482 90.445-142.281 151.174-213.085C567.706 676.85 717.632 543.199 847.701 410.57c57.896-59.048 108.005-113.765 144.467-166.351 30.574-44.123 50.452-86.064 49.028-121.402"/><path d="M444.509 1529.768c-142.397-74.47-254.372-202.177-280.759-350.579-27.888-157.785 32.677-339.655 135.299-507.639 53.668-87.789 116.519-170.575 182.504-248.652 63.69-75.344 127.48-142.918 186.711-203.732 52.315-53.71 97.512-98.191 131.84-135.201 24.936-26.89 44.804-48.389 38.385-55.424"/><path d="M391.419 1499.07c-47.759-31.204-85.27-72.001-95.577-118.114-10.417-46.838 8.188-103.257 45.685-156.18 44.928-63.344 112.997-125.186 193.767-189.074C623.959 965.589 723.04 897.354 825 826.944s201.041-138.646 289.706-208.758c80.771-63.889 148.84-125.73 193.767-189.074 37.497-52.923 56.102-109.342 45.685-156.18-10.307-46.113-47.818-86.91-95.577-118.114"/><path d="M409.954 1510.567c-66.611-39.522-122.127-91.53-149.887-153.71-27.304-61.293-26.341-137.298-.136-211.045 29.794-83.697 87.705-168.093 159.737-252.817 77.673-91.321 167.945-178.754 260.312-265.998 90.538-85.512 177.629-165.128 251.569-243.124 64.692-68.262 115.825-130.611 138.175-189.384 17.378-45.808 7.891-93.728-24.256-119.192-38.058-30.076-98.85-42.748-167.309-45.976M430.488 1511.024c70.749 37.515 143.262 65.983 212.612 86.329 62.032 18.186 116.473 28.927 159.865 29.03"/><path d="M460.649 1526.925c-120.19-62.701-229.604-148.891-300.99-256.036"/><path d="M395.223 1492.563c102.845 51.957 216.379 83.649 316.616 108.147 41.068 10.033 74.584 17.223 99.398 22.154 15.409 3.061 21.226 3.789 17.358 2.956"/><path d="M384.096 1487.116c65.732 30.689 145.495 52.119 228.632 71.531 80.334 18.75 152.964 32.185 212.272 43.808 42.948 8.418 78.4 12.921 74.045 19.297-6.064 8.67-34.517 3.998-68.834 3.408"/><path d="M533.392 1562.762c-169.08-77.074-320.753-215.053-413.547-386.681C28.671 1007.17 2.209 806.498 51.163 627.989"/><path d="M562.236 1575.355C279.435 1457.301 57.43 1149.51 42.388 826.944 28.135 513.13 234.445 204.062 523.25 87.892M804.836 1602.402c-5.403-16.838-9.731-38.474-13.819-64.423-4.741-30.108-8.781-64.466-12.426-102.816-8.329-87.708-13.982-188.832-17.766-300.762M812.068 1625.852c-9.99-7.585 26.724-38.983 70.306-78.996M821.405 1625.82c-3.868.833 1.949.105 17.358-2.956 24.815-4.931 58.331-12.121 99.398-22.154 100.237-24.498 213.771-56.19 316.616-108.147"/><path d="M812.639 1626.208c-12.755-6.575 38.663-44.979 98.414-93.977 38.222-31.343 81.461-66.652 128.16-106.605 50.341-43.072 102.702-89.793 155.072-140.724M807.675 1612.863c-3.491-15.277-2.493-36.929.216-63.879 3.287-32.654 9.346-70.625 17.109-113.726 8.667-48.11 19.187-100.695 30.759-157.472 12.342-60.554 25.585-124.329 38.938-190.913M819.449 1626.224c-3.37.655-2.748-.122 2.08-1.692 8.89-2.89 21.906-6.777 38.849-11.982 45.161-13.874 103.757-32.348 172.338-57.455 157.598-57.719 323.885-127.549 424.481-240.379"/><path d="M813.954 1626.634c-6.552-1.166 21.729-23.86 61.487-50.725 56.347-38.071 128.169-84.917 209.268-143.792 184.628-134.073 373.302-293.356 470.656-489.537M804.836 1602.402c-10.889-33.949-17.74-83.842-24.282-147.384-7.858-76.396-13.463-164.656-17.555-262.873-9.066-217.938-9.716-449.132-2.174-672.659"/><path d="M804.836 1602.402c-8.033-25.04-13.767-59.666-19.199-102.7-6.447-51.109-11.528-110.1-15.776-176.194-4.65-72.397-8.053-150.345-10.392-232.822-2.434-85.933-3.629-174.247-3.63-263.742.001-89.496 1.196-177.809 3.63-263.742 2.339-82.477 5.742-160.424 10.392-232.822 4.249-66.095 9.33-125.086 15.776-176.194 5.432-43.034 11.165-77.66 19.199-102.7M809.856 1622.101c-2.359-7.407 2.084-19.57 8.868-34.617 8.723-19.337 21.402-41.981 36.879-68.261 37.615-63.859 86.284-139.629 139.475-228.363 120.75-201.47 242.067-425.05 291.064-658.014"/><path d="M806.697 1608.839c-3.613-13.962-5.076-32.385-5.662-54.678-.686-26.233.072-56.365 1.735-90.212 3.858-78.407 12.142-169.596 22.23-271.728 22.515-227.884 50.624-468.506 64.521-699.761M814.444 1626.7c-2.895-.287 3.846-8.909 17.532-18.38 20.474-14.163 48.543-31.416 82.958-52.911 40.441-25.259 86.267-54.043 136.014-87.107 53.677-35.68 109.613-74.779 165.807-118.033 115.538-88.959 223.851-188.203 301.446-301.515 71.39-104.359 110.607-221.526 99.032-329.733M811.132 1624.876c-4.231-5.95 6.245-20.677 20.318-38.668 19.215-24.555 45.548-53.773 77.064-88.651 36.318-40.191 77.182-85.01 120.768-135.003 46.728-53.602 94.844-111.106 142.1-172.849 97.154-126.971 184.42-262.781 238.219-405.412 49.876-132.408 65.684-268.638 31.504-383.818M808.729 1617.638c-3.711-16.888 3.429-43.833 13.899-78.702 13.226-44.026 32.115-95.835 54.221-155.47 24.773-66.828 52.371-139.741 80.522-218.367 29.605-82.696 58.806-168.766 85.037-257.467 52.315-176.986 90.079-351.082 88.052-509.772-.939-71.409-10.518-137.593-31.648-194.083-19.447-51.92-49.873-96.29-88.885-126.137"/><path d="M806.138 1606.756c-6.54-23.558-8.922-57.175-10.201-99.42-1.533-50.823-.689-109.814 1.466-176.235 2.376-73.146 6.317-152.07 11.079-235.766 4.974-87.393 10.708-177.259 16.517-268.391s11.543-180.998 16.517-268.391c4.762-83.696 8.703-162.62 11.079-235.766 2.155-66.422 3-125.412 1.466-176.235-1.279-42.245-3.661-75.862-10.201-99.42M811.512 1625.345c-6.419-7.035 13.449-28.534 38.385-55.424 34.328-37.01 79.525-81.491 131.84-135.201 59.231-60.814 123.021-128.388 186.711-203.732 65.986-78.076 128.837-160.863 182.504-248.652 102.622-167.984 163.186-349.854 135.299-507.639-26.387-148.402-138.362-276.109-280.759-350.579"/><path d="M809.737 1621.715c-4.587-15.373 10.812-43.493 30.893-80.876 26.303-48.95 61.45-107.017 101.438-175 44.784-76.14 92.75-159.318 139.483-249.51 48.331-93.295 93.302-190.041 129.534-289.385 35.349-96.978 61.262-193.528 71.56-286.902 9.628-87.551 4.868-171.585-18.636-244.633C1220.5 160.555 1094.194 61.787 948.13 36.813M796.528 1626.282c-37.75-1.094-82.778-10.017-133.14-24.64-56.075-16.293-115.306-38.966-175.332-67.998-124.737-60.372-241.738-141.899-317.53-247.049"/><path d="M741.614 1619.483c-50.482-10.778-104.125-33.164-158.602-64.474-58.837-33.836-117.243-77.318-173.146-128.883-117.684-108.62-217.823-246.544-279.001-400.757"/><path d="M679.796 1599.451c-70.773-32.081-135.38-92.469-187.343-169.589-56.567-84.03-98.673-186.702-125.773-299.154"/><path d="M763.773 1623.421c-74.724-10.65-160.056-45.764-248.492-98.38-96.711-57.579-190.541-133.067-271.577-224.079-160.296-180.215-248.057-419.7-202.617-631.96"/><path d="M718.491 1613.662c-78.841-22.996-159.506-74.553-234.52-145.203-81.45-76.768-153.766-173.57-210.825-283.528-116.599-224.969-158.17-492.178-85.5-716.417"/><path d="M679.796 1599.451c-64.6-29.281-124.164-82.153-173.396-149.677-53.323-73.198-94.985-162.847-124.378-261.869-62.472-210.798-67.585-447.531-15.343-664.725"/><path d="M739.296 1618.979c-55.811-12.338-115.106-38.786-174.857-75.861-64.672-40.153-128.134-91.734-187.632-152.696-124.559-127.712-224.287-288.666-271.335-462.989-45.364-168.49-35.101-347.316 35.159-494.311 69.77-145.685 198.26-263.021 349.317-331.057"/><path d="M705.831 1609.681c-115.65-39.179-227.547-140.759-316.053-275.181-96.124-146.151-160.553-323.68-178.96-507.557-17.948-180.224 11.433-360.343 92.047-503.448C379.393 187.875 506.94 86.6 650.207 48.145"/><path d="M679.796 1599.451c-101.854-46.188-189.488-150.371-249.255-281.077-65.935-144.39-98.978-315.506-99.012-491.43.034-175.924 33.077-347.04 99.012-491.43 59.767-130.707 147.401-234.89 249.255-281.077"/><path d="M609.541 1536.569c-6.567-29.453 1.184-65.531 17.773-103.082 19.365-43.79 49.783-89.972 86.888-139.165M658.284 1500.038c109.966 2.261 223.466 2.261 333.432 0"/><path d="M658.284 1500.038c129.132 2.654 261.485 2.273 385.816-1.283 55.942-1.602 106.191-3.767 149.721-6.803 36.105-2.52 64.235-5.08 83.459-9.38M627.554 1504.986c52.967-22.51 119.805-44.629 197.446-69.728 86.398-27.927 179.362-56.954 274.828-89.695"/><path d="M610.365 1539.619c-8.821-27.96-5.195-62.684 6.909-98.915 13.978-41.786 38.328-86.237 69.018-133.419 70.501-108.33 166.368-220.559 265.744-343.263M642.19 1500.999c61.389-9.326 130.089-19.055 204.421-30.18 78.273-11.715 158.435-24.263 238.099-38.703 77.336-14.021 149.971-28.929 215.14-46.544 57.098-15.442 104.631-31.244 137.153-52.107"/><path d="M616.853 1511.711c38.349-35.554 99.081-69.939 173.953-109.534 86.883-45.938 184.905-93.284 287.672-146.333 105.175-54.298 208.018-110.386 300.239-172.89 84.917-57.579 156.56-117.582 200.888-183.406"/><path d="M631.812 1569.418c-39.062-35.095-64.853-88.561-75.859-149.351-12.254-67.876-8.509-145.863 5.188-229.266 30.693-186.496 104.549-381.192 180.217-576.018"/><path d="M646.867 1581.161c-79.298-54.402-129.157-162.149-146.41-286.508-19.637-142.085-3.848-302.663 30.338-467.71 34.812-167.883 85.952-326.915 140.602-470.166 24.741-64.835 49.157-123.406 72.272-175.223 20.141-45.143 38.134-82.705 53.695-112.3"/><path d="M609.032 1533.702c-5.227-40.017 16.311-89.717 50.743-142.038 41.363-62.81 99.124-128.357 165.225-199.443 146.498-157.519 310.198-313.794 430.791-487.673"/><path d="M625.746 1563.556c-41.343-43.247-60.14-112.407-58.528-188.539 1.907-87.977 26.494-186.271 62.081-290.945 38.303-112.604 87.633-226.928 138.448-342.521 50.118-114.002 99.158-222.717 137.829-326.165"/><path d="M615.753 1512.788c19.355-19.995 46.62-39.923 79.592-61.14 37.64-24.214 81.166-48.904 129.302-75.12 106.965-58.248 226.205-118.247 346.735-186.823 119.321-67.904 229.917-137.673 316.058-216.893 74.595-68.657 126.569-145.555 131.105-219.52"/><path d="M608.781 1529.756c.202-27.785 13.87-59.58 35.135-92.746 24.897-38.803 59.433-79.12 100.173-122.065 93.073-98.078 207.453-198.747 322.78-310.89 115.294-112.132 221.312-224.172 293.281-342.006 62.636-102.661 92.848-210.882 70.136-300.179"/><path d="M619.219 1555.946c-23.216-30.615-34.466-72.753-34.518-118.569-.034-51.557 12.484-108.948 32.627-170.034 22.086-66.933 52.764-136.758 88.091-209.443C742.382 981.86 783.402 904.974 825 826.944s82.618-154.916 119.582-230.956c35.326-72.685 66.004-142.51 88.091-209.443 20.144-61.087 32.661-118.477 32.627-170.034-.052-45.816-11.302-87.954-34.518-118.569"/><path d="M640.073 1576.248c-39.012-29.847-69.438-74.217-88.885-126.137-21.13-56.49-30.709-122.673-31.648-194.083-2.027-158.69 35.737-332.786 88.052-509.772 26.23-88.701 55.432-174.77 85.037-257.467 28.151-78.626 55.748-151.54 80.522-218.367 22.106-59.635 40.995-111.444 54.221-155.47 10.47-34.869 17.61-61.814 13.899-78.702"/><path d="M608.804 1531.071c-1.425-35.338 18.453-77.279 49.028-121.402 36.462-52.586 86.572-107.302 144.467-166.351 130.069-132.63 279.995-266.28 408.786-416.375 60.729-70.805 113.308-141.603 151.174-213.085 34.555-65.283 55.956-131.019 57.584-192.445 2.881-112.433-75.518-217.089-183.212-280.103"/><path d="M613.8 1547.611c-20.307-37.654-19.812-90.261-4.929-145.749 17.501-65.13 52.144-135.408 95.561-210.713 97.987-169.876 225.766-340.509 331.516-521.712 49.597-85.02 91.366-167.316 117.653-246.795 23.575-71.357 33.644-139.87 22.441-198.456-10.317-53.742-41.56-101.39-85.657-132.669-47.127-33.379-109.464-52.349-177.461-59.559"/><path d="M688.152 1504.158c-93.206-22.88-188.159-47.571-278.287-78.033-82.951-28.051-154.746-57.38-202.02-96.483M747.515 1530.945c-46.623-31.792-100.062-67.256-157.991-107.712-62.198-43.442-126.577-90.461-190.122-142.24-127.974-104.314-242.954-219.049-309.369-347.51"/><path d="M759.468 1539.827c-38.486-31.139-83.156-66.268-132.154-106.339-53.256-43.557-109.19-90.888-165.453-142.765M767.626 1546.856c43.582 40.013 80.296 71.411 70.306 78.996"/><path d="M702.494 1508.368c61.367 20.946 115.516 38.959 160.436 55.954 35.694 13.509 62.398 24.048 75.231 36.387 6.686 6.445-.572 16.174-15.34 19.328-21.949 4.676-51.012 5.545-84.919 5.226"/><path d="M744.352 1528.835c-64.283-41.947-139.637-89.552-220.544-145.825-86.017-59.837-172.17-124.949-250.662-198.079-76.116-70.947-141.684-146.584-185.769-227.254C46.602 882.985 25.849 802.57 32.019 726.9M776.98 1556.166c-49.585-53.631-112.894-120.096-182.934-201.43-77.751-90.305-156.587-190.185-226.216-300.23-69.287-109.554-125.733-223.712-156.222-339.017-28.513-108.017-32.106-216.703-3.82-311.3"/><path d="M790.4 1573.021c-26.831-39.701-60.033-89.836-97.527-150.463-42.678-69.017-87.7-146.414-131.732-231.756-93.602-181.486-173.244-377.437-199.975-573.558"/><path d="M772.884 1551.901c-34.6-34.714-76.021-75.186-122.119-122.264-50.93-52.016-104.804-109.173-158.834-172.024-113.059-131.553-217.187-275.624-281.113-430.669-58.998-143.295-75.486-294.079-31.549-418.245 43.094-121.443 144.28-221.664 266.826-285.406"/><path d="M789.611 1571.867c-24.757-35.802-55-80.149-89.133-133.156-38.69-60.09-79.825-127.319-120.952-201.465-88.286-159.214-168.098-333.043-210.838-513.323-39.832-168.329-41.009-334.515 18.94-461.027C443.346 145.603 561.295 62.713 694.614 38.1"/><path d="M797.364 1584.633c-15.56-29.595-33.554-67.157-53.695-112.3-23.115-51.817-47.531-110.388-72.272-175.223-54.65-143.251-105.79-302.283-140.602-470.166-34.186-165.047-49.975-325.625-30.338-467.71 17.253-124.359 67.112-232.106 146.41-286.508M219.284 1336.29c29.38 5.387 74.331 8.178 133.371 11.051 71.913 3.496 155.005 5.798 247.034 7.287M222.613 1304.09c-11.932-53.83.64-116.185 31.582-175.97 35.342-68.207 92.129-135.629 160.68-203.435"/><path d="M219.284 1336.29c24.835 4.555 61.616 7.17 109.364 9.807 57.995 3.201 125.262 5.48 200.445 7.172 167.77 3.771 346.734 4.175 521.218 1.358M225.91 1327.691c.917-29.578 25.238-61.658 61.429-90.76 45.066-36.208 106.479-69.867 179.22-104.656 81.832-39.125 173.534-77.103 271.574-116.531 101.92-40.986 205.865-81.439 308.129-123.625"/><path d="M219.284 1336.29c18.563 3.405 44.565 5.658 77.518 7.872 39.617 2.659 85.549 4.733 137.24 6.473 118.075 3.969 250.749 5.748 390.958 5.75 140.209-.002 272.884-1.781 390.958-5.75 51.691-1.74 97.623-3.814 137.24-6.473 32.953-2.213 58.954-4.467 77.518-7.872M224.882 1333.425c6.677-15.255 26.649-28.926 53.13-42.104 33.174-16.498 75.345-31.565 124.999-47.066 56.384-17.597 119.723-34.703 188.897-52.385 73.995-18.912 152.13-37.781 233.092-57.402 165.908-40.208 329.366-79.615 478.22-125.292 67.422-20.696 128.446-41.699 181.294-64.586 46.098-19.974 84.25-40.382 110.417-63.718M167.472 1125.06c-65.503-190.364-65.503-405.868 0-596.232M222.917 1305.474c-17.119-79.181 23.592-175.762 96.055-265.406 86.305-106.669 207.121-206.719 338.084-309.72"/><path d="M201.592 1229.35c-77.161-250.302 36.813-560.114 213.836-812.97"/><path d="M167.472 1125.06c-72.157-209.722-64.347-449.651 21.616-652.585 83.141-195.86 241.573-352.186 424.915-413.428"/><path d="M207.787 1249.698c-28.285-94.597-24.692-203.283 3.82-311.3 30.489-115.305 86.935-229.463 156.222-339.017 69.63-110.044 148.466-209.925 226.216-300.229 70.04-81.334 133.349-147.799 182.934-201.43"/><path d="M187.646 1185.374c-72.669-224.239-31.099-491.448 85.5-716.417 57.059-109.958 129.376-206.76 210.825-283.528 75.014-70.65 155.679-122.207 234.52-145.203M225.903 1325.344c-1.187-37.678 28.956-79.877 74.849-118.06 57.348-47.674 135.794-92.054 227.731-138.35 211.378-106.401 449.766-199.483 666.122-310.31"/><path d="M220.587 1295.488c-16.281-65.944-2.461-143.117 33.532-217.619 40.793-84.335 106.647-167.559 184.797-250.925 82.952-88.46 175.551-172.487 268.09-255.841 89.291-80.428 173.138-154.82 242.298-227.495M225.317 1332.184c5.201-18.575 26.166-36.427 54.63-53.146 35.655-20.927 81.934-40.108 136.635-59.851 62.096-22.405 132.003-44.172 208.178-66.687 81.122-23.976 166.346-47.839 253.927-72.658 88.613-25.112 176.758-50.345 262.527-76.795 82.55-25.461 160.145-51.135 230.769-78.504 64.131-24.861 120.077-49.993 164.891-77.784 37.63-23.352 66.506-48.303 78.156-75.193"/><path d="M225.461 1319.858c-3.929-32.957 8.632-70.067 32.73-104.699 28.196-40.479 70.874-79.802 122.77-119.382 58.048-44.255 125.7-87.296 199.723-131.12 78.099-46.23 160.494-91.559 244.316-137.712s166.217-91.483 244.316-137.712c74.023-43.824 141.675-86.864 199.723-131.12 51.896-39.581 94.575-78.903 122.771-119.382 24.098-34.633 36.659-71.742 32.73-104.699"/><path d="M219.714 1292.016c-22.712-89.297 7.5-197.518 70.136-300.179 71.969-117.834 177.987-229.874 293.281-342.006 115.327-112.143 229.707-212.811 322.78-310.89 40.74-42.945 75.276-83.261 100.173-122.065 21.265-33.166 34.933-64.961 35.135-92.746"/><path d="M208.895 1253.412c-34.18-115.18-18.372-251.409 31.504-383.818 53.799-142.631 141.065-278.441 238.219-405.412 47.256-61.743 95.372-119.247 142.1-172.849 43.585-49.992 84.45-94.811 120.768-135.003 31.516-34.878 57.849-64.096 77.064-88.651 14.073-17.991 24.549-32.719 20.318-38.668M224.814 1315.317c-6.798-41.959 8.18-90.146 38.354-135.28 35.353-52.824 89.375-104.246 154.496-156.267 149.853-119.643 335.194-226.766 516.967-343.215 86.573-55.469 166.846-109.156 235.933-163.926 61.541-48.805 111.821-96.403 143.177-144.894 26.207-40.575 37.133-84.256 27.099-120.277-10.159-36.331-40.296-68.466-78.404-94.089"/><path d="M220.538 1295.291c-14.056-56.813-6.275-121.951 19.054-185.635 28.229-70.879 76.418-141.934 135.846-212.911C506.369 740.465 673.087 601.96 825 461.666c69.002-63.735 130.126-122.934 176.837-180.485 39.411-48.583 67.109-94.54 70.832-135.168 3.062-33.807-17.129-66.218-49.035-83.994-37.949-21.104-89.816-30.289-147.854-32.806M192.803 1314.716c100.595 112.83 266.883 182.66 424.481 240.379 68.58 25.107 127.176 43.581 172.338 57.455 16.943 5.205 29.959 9.093 38.849 11.982 4.827 1.57 5.449 2.347 2.08 1.692"/><path d="M212.998 1333.466c32.522 20.863 80.055 36.665 137.153 52.107 65.168 17.615 137.804 32.522 215.14 46.544 79.664 14.439 159.826 26.987 238.099 38.703 74.332 11.124 143.032 20.854 204.421 30.18"/><path d="M203.835 1326.112c63.948 59.351 164.981 101.411 276.467 140.954 113.795 40.342 223.201 70.145 316.263 97.127 38.508 11.166 70.833 20.74 96.066 30.009 18.688 6.868 32.754 12.294 34.372 18.987 2.938 12.47-43.164 12.667-92.21 12.039"/><path d="M215.435 1334.881c22.218 11.382 52.928 20.288 90.069 28.982 42.998 10.059 91.85 18.78 145.523 27.021 118.132 18.129 245.523 31.92 373.974 44.374 62.267 6.036 122.1 11.426 178.669 16.444 52.58 4.664 100.552 8.836 143.354 12.841 37.237 3.485 68.586 6.606 93.749 9.956 19.012 2.533 32.495 4.007 38.253 8.046M80.903 1115.581c-70.956-183.122-70.956-394.153 0-577.275"/><path d="M80.903 1115.581C2.81 914.015 11.641 678.536 104.612 483.385 197.743 288.31 375.169 133.236 580.954 67.054"/><path d="M43.787 875.08c15.738.291 36.519.505 62.275.713 30.629.248 65.985.455 105.885.642 92.481.433 199.906.718 319.399.903"/><path d="M43.787 875.08c13.467.249 30.786.44 51.917.626 24.882.218 53.432.405 85.541.576 74.345.396 161.041.678 258.39.888 218.272.47 451.652.52 679.018.169"/><path d="M43.787 875.08c22.91.424 55.291.693 96.913.964 50.496.328 109.355.584 175.919.799 73.474.237 152.933.41 237.332.529 88.197.124 178.972.185 271.049.185 92.077 0 182.851-.061 271.049-.185 84.399-.119 163.858-.292 237.332-.529 66.565-.215 125.423-.471 175.919-.799 41.622-.271 74.003-.54 96.913-.964M31.297 914.354c-1.685-58.171 16.469-119.27 49.26-176.485"/><path d="M39.335 876.415c13.588-9.38 34.454-16.828 60.627-24.331 31.388-8.992 68.524-17.103 110.855-25.14 47.114-8.943 98.944-17.395 154.995-25.78 59.752-8.937 122.85-17.56 188.719-26.145"/><path d="M31.438 918.048c-4.597-99.675 47.254-206.616 129.014-301.06 91.165-105.214 210.904-196.192 335.417-280.932"/><path d="M51.163 1025.898C2.209 847.39 28.671 646.717 119.845 477.806 212.639 306.179 364.312 168.2 533.392 91.126"/><path d="M32.019 926.987c-6.17-75.67 14.583-156.085 55.358-230.777 44.085-80.669 109.653-156.307 185.769-227.253 78.492-73.13 164.645-138.242 250.662-198.079C604.716 214.605 680.07 167 744.352 125.053"/><path d="M41.087 984.886c-45.44-212.261 42.321-451.746 202.617-631.96 81.036-91.012 174.865-166.5 271.577-224.079 88.435-52.616 173.768-87.731 248.492-98.38"/><path d="M41.062 875.518c28.405-10.278 74.329-16.406 135.108-23.652 75.053-8.942 163.297-16.855 262.745-24.923 223.401-18.116 462.205-33.467 693.215-50.888"/><path d="M32.372 891.964c8.381-51.799 49.386-103.991 106.312-151.303 66.753-55.438 152.621-105.232 248.965-154.249 102.275-52.019 210.272-99.604 317.929-146.454 103.783-45.162 200.872-86.577 286.218-127.946"/><path d="M42.004 875.248c21.76-4.686 53.539-7.844 94.659-11.331 50.164-4.252 108.964-8.064 175.686-11.912 73.819-4.255 153.823-8.306 238.924-12.394 89.016-4.275 180.7-8.439 273.727-12.668s184.712-8.393 273.727-12.668c85.101-4.087 165.105-8.138 238.924-12.394 66.722-3.847 125.522-7.66 175.686-11.912 41.12-3.487 72.899-6.645 94.659-11.331"/><path d="M34.971 882.322c11.651-26.89 40.526-51.841 78.156-75.193 44.814-27.791 100.759-52.923 164.891-77.784 70.623-27.369 148.218-53.042 230.769-78.504 85.769-26.45 173.914-51.683 262.527-76.795 87.581-24.819 172.804-48.683 253.927-72.658 76.174-22.516 146.082-44.282 208.178-66.687 54.701-19.743 100.98-38.924 136.635-59.851 28.464-16.719 49.429-34.572 54.63-53.146"/><path d="M31.455 900.595c4.536-73.965 56.51-150.863 131.105-219.52 86.141-79.219 196.737-148.988 316.058-216.893 120.53-68.576 239.771-128.575 346.735-186.823 48.136-26.216 91.662-50.906 129.302-75.12 32.972-21.217 60.237-41.145 79.592-61.14"/><path d="M32.767 934.866C21.192 826.659 60.41 709.492 131.799 605.133c77.595-113.311 185.908-212.555 301.446-301.515 56.194-43.255 112.129-82.353 165.807-118.033 49.747-33.064 95.572-61.848 136.014-87.107 34.415-21.494 62.484-38.748 82.958-52.911 13.687-9.471 20.427-18.093 17.532-18.38"/><path d="M33.321 887.302c9.289-36.658 39.924-72.742 81.57-105.891 48.871-38.872 111.584-74.252 183.35-109.077C459.545 594.096 643.18 528.977 825 461.666c86.155-31.896 166.823-62.123 239.579-92.541 64.93-27.153 120.502-52.947 163.853-80.106 34.964-21.918 60.842-44.248 68.643-67.225 6.34-18.755-3.819-40.353-22.257-55.45"/><path d="M31.258 905.361c1.311-54.976 24.921-112.487 63.224-165.632 42.619-59.08 102.128-114.396 170.921-167.636 148.87-115.146 320.29-207.532 477.088-297.097 69.352-39.618 130.38-75.127 179.275-109.522 39.46-27.77 69.143-52.625 78.077-76.878 6.342-17.293-7.79-36.274-30.507-44.738-30.096-11.19-70.297-14.786-116.254-15.237M83.739 921.677c83.399 151.003 242.045 277.984 409.943 394.65"/><path d="M94.635 942.58c97.354 196.181 286.028 355.464 470.656 489.537 81.099 58.875 152.921 105.721 209.268 143.792 39.758 26.865 68.039 49.559 61.487 50.725"/><path d="M70.394 899.548c44.328 65.824 115.971 125.827 200.888 183.406 92.22 62.504 195.064 118.592 300.239 172.89 102.768 53.049 200.79 100.396 287.672 146.333 74.872 39.595 135.604 73.98 173.953 109.534"/><path d="M74.324 905.603c68.026 108.328 192.893 201.564 334.38 290.739 73.064 46.036 147.826 88.653 221.157 129.568 70.104 39.112 136.022 74.965 195.139 109.349 52.375 30.467 96.686 57.904 129.818 84.821 25.873 21.033 44.073 41.541 44.002 59.063-.216 31.594-69.931 45.474-146.682 46.133"/><path d="M60.085 885.963c29.598 33.364 73.619 63.558 126.48 92.835 59.447 32.91 127.887 63.256 202.537 93.06 160.308 63.98 330.532 118.34 493.444 173.71 75.72 25.738 145.846 50.213 208.667 74.866 55.765 21.889 103.346 42.784 140.637 64.867 30.087 17.828 52.537 35.957 60.148 55.03 6.102 15.349-1.3 33.566-16.068 46.281"/><path d="M63.015 889.44c35.372 43.959 90.195 83.691 155.998 122.153 73.494 42.938 157.495 82.189 247.546 120.684 92.995 39.745 188.047 76.615 281.563 112.816 89.773 34.751 173.863 67.103 249.258 99.331"/><path d="M55.068 880.872c26.167 23.336 64.32 43.744 110.417 63.718 52.848 22.888 113.872 43.89 181.294 64.586 148.854 45.676 312.312 85.083 478.22 125.292 80.963 19.621 159.098 38.49 233.093 57.402 69.174 17.682 132.512 34.788 188.897 52.385 49.654 15.501 91.825 30.568 124.999 47.066 26.481 13.178 46.453 26.849 53.13 42.104"/><path d="M80.557 916.018c-32.79-57.215-50.945-118.313-49.26-176.485M133.55 1032.187c-71.457-182.691-80.496-385.267-13.705-554.38 65.916-166.492 205.683-302.373 372.915-377.001M599.689 1354.629c148.563 2.399 302.059 2.399 450.621 0M723.261 1281.256c62.237-97.662 140.775-199.204 221.824-308.275"/><path d="M599.689 1354.629c174.485 2.817 353.449 2.413 521.218-1.358 75.183-1.693 142.45-3.972 200.445-7.172 47.747-2.637 84.529-5.253 109.363-9.807M652.62 1344.423c75.395-32.228 159.485-64.579 249.258-99.331 93.516-36.201 188.569-73.071 281.563-112.816 90.051-38.494 174.053-77.746 247.547-120.684 65.803-38.462 120.625-78.193 155.998-122.153M760.825 1134.402c-6.829-202.353-6.829-412.563 0-614.916"/><path d="M760.825 1134.402c-7.543-223.527-6.892-454.721 2.174-672.659 4.092-98.218 9.697-186.478 17.555-262.873 6.542-63.542 13.393-113.435 24.282-147.384M707.683 1302.487c75.803-89.659 170.357-181.723 269.008-282.137 100.798-102.607 198.31-205.098 276.553-312.221M757.607 1187.978C795.001 950.681 855 703.205 892.393 465.909M658.205 1341.876c85.345-41.369 182.435-82.784 286.218-127.946 107.657-46.85 215.654-94.435 317.929-146.454 96.344-49.016 182.212-98.811 248.965-154.249 56.926-47.313 97.93-99.505 106.312-151.303"/><path d="M700.697 1310.28c69.161-72.675 153.007-147.067 242.298-227.495 92.538-83.354 185.137-167.381 268.09-255.841 78.15-83.367 144.003-166.59 184.797-250.925 35.993-74.502 49.813-151.675 33.532-217.619M744.424 1238.5c38.67-103.448 87.711-212.164 137.829-326.165 50.815-115.593 100.145-229.917 138.448-342.521 35.586-104.674 60.174-202.967 62.081-290.945 1.612-76.131-17.185-145.292-58.528-188.539M760.479 1161.428C774.376 930.173 802.485 689.55 825 461.666c10.088-102.132 18.372-193.321 22.23-271.728 1.663-33.847 2.421-63.979 1.735-90.212-.585-22.292-2.049-40.716-5.662-54.678"/><path d="M704.055 1306.648c89.188-99.172 201.951-200.31 317.491-312.399 116.294-112.836 224.958-224.806 301.787-342.48 66.889-102.545 103.393-209.542 85.786-299.173-16.875-85.423-84.572-159.371-170.192-209.938"/><path d="M731.843 1266.523c66.494-125.102 153.745-255.829 238.786-396.118 84.335-139.151 159.911-274.491 200.754-406.223 35.211-113.755 37.833-224.782-8.439-300.623-45.179-73.855-139.247-118.653-243.837-130.913M455.716 1284.902c52.369 50.931 104.731 97.652 155.072 140.724 46.699 39.953 89.938 75.262 128.16 106.605 59.75 48.999 111.169 87.402 98.414 93.977M550.172 1345.563c95.466 32.742 188.43 61.768 274.828 89.695 77.641 25.099 144.479 47.218 197.446 69.728"/><path d="M523.978 1334.46c96.753 48.79 189.108 91.253 271.02 131.407 69.869 34.255 125.94 62.646 161.094 91.604 22.611 18.65 25.757 42.923 9.094 51.598-26.215 13.605-68.437 16.156-118.345 16.231M576.288 1352.359c91.792 16.146 183.98 30.445 273.895 44.035 85.347 12.899 164.169 24.418 234.527 35.722 60.705 9.755 110.749 18.406 148.882 28.174 27.001 6.923 47.345 14.827 45.574 22.721M495.87 1317.831c-124.513-84.74-244.252-175.718-335.417-280.932-81.76-94.444-133.612-201.384-129.015-301.06"/><path d="M415.427 1237.507C238.405 984.652 124.43 674.84 201.592 424.538"/><path d="M366.68 1130.708c-47.36-196.874-47.36-410.654 0-607.528"/><path d="M431.534 1258.66c-163.373-197.794-294.179-429.775-295.841-654.349-1.279-203.238 133.092-391.431 319.085-485.468"/><path d="M388.801 1192.218C278.027 963.189 223.038 699.887 273.146 468.956c23.413-107.544 71.282-205.521 140.138-279.341 67.358-72.128 156.944-122.818 253.855-145.739"/><path d="M366.68 1130.708c-52.242-217.194-47.129-453.928 15.343-664.725 29.393-99.022 71.055-188.67 124.378-261.869C555.632 136.59 615.197 83.717 679.796 54.437M531.346 877.338c193.551.299 393.757.299 587.308 0"/><path d="M531.346 877.338c227.367.351 460.746.301 679.018-.169 97.349-.21 184.045-.492 258.39-.888 32.109-.171 60.659-.358 85.542-.576 21.131-.185 38.45-.377 51.917-.626M420.995 918.927c70.178-62.781 148.77-123.543 230.885-184.62M361.166 1036.644c26.732-196.122 106.374-392.073 199.975-573.558 44.032-85.342 89.054-162.739 131.732-231.756 37.494-60.627 70.696-110.762 97.527-150.463M501.731 879.828c212.046-36.692 434.491-69.077 646.537-105.769"/><path d="M396.757 945.758C475 838.635 572.512 736.144 673.31 633.537 771.96 533.123 866.515 441.059 942.317 351.4M517.869 877.832c231.01-17.422 469.815-32.773 693.215-50.888 99.448-8.067 187.693-15.98 262.745-24.923 60.778-7.246 106.703-13.374 135.108-23.652M455.395 895.264c216.357-110.827 454.744-203.909 666.122-310.31 91.937-46.296 170.383-90.676 227.731-138.35 45.892-38.184 76.035-80.382 74.849-118.06"/><path d="M394.209 949.339C514.802 775.461 678.502 619.185 825 461.666c66.101-71.086 123.862-136.633 165.225-199.443 34.432-52.322 55.97-102.021 50.743-142.038"/><path d="M363.858 1021.041c48.996-232.964 170.314-456.544 291.064-658.014 53.192-88.734 101.861-164.503 139.475-228.363 15.477-26.28 28.157-48.923 36.879-68.261 6.784-15.047 11.227-27.21 8.868-34.617M439.808 904.387c118.606-78.606 251.098-151.957 384.724-227.511 129.508-73.229 249.303-141.463 346.849-212.693 81.098-59.252 142.121-117.46 157.901-175.115 12.671-46.538-16.537-96.796-63.345-129.307"/><path d="M400.669 940.601c93.572-118.742 210.336-230.54 327.792-343.086 57.191-54.8 112.416-107.531 163.119-159.297 47.358-48.357 89.397-94.355 123.112-139.139 55.683-74.013 83.981-149.868 57.108-195.758-28.219-47.984-105.746-69.686-192.459-73.943M755.303 1086.873c13.353 66.584 26.596 130.359 38.938 190.913 11.572 56.777 22.091 109.362 30.759 157.472 7.763 43.101 13.822 81.072 17.109 113.726 2.709 26.95 3.707 48.602.216 63.879M697.963 964.021c99.376 122.704 195.243 234.933 265.744 343.263 30.69 47.182 55.04 91.633 69.018 133.419 12.104 36.231 15.73 70.955 6.909 98.915"/><path d="M682.914 946.974c90.543 94.074 179.527 182.538 255.866 269.722 67.747 77.394 121.813 148.522 145.929 215.421 19.081 53.054 10.416 107.669-23.856 137.917-39.35 34.649-104.284 50.154-177.088 54.244"/><path d="M625.479 902.568c115.442 63.592 231.645 123.733 341.12 184.946 101.271 56.634 190.32 110.007 258.822 165.64 55.962 45.479 95.728 92.144 101.559 136.021 4.999 38.003-21.113 76.76-59.528 103.892"/><path d="M704.915 972.981c81.049 109.071 159.587 210.613 221.824 308.275M603.739 892.12c102.264 42.186 206.209 82.64 308.129 123.625 98.04 39.428 189.741 77.406 271.574 116.531 72.741 34.789 134.154 68.448 179.22 104.656 36.191 29.102 60.512 61.181 61.429 90.76M554.531 878.869c-65.869-8.585-128.967-17.208-188.719-26.145-56.051-8.385-107.881-16.837-154.995-25.78-42.332-8.038-79.467-16.148-110.855-25.14-26.174-7.503-47.04-14.95-60.627-24.331"/><path d="M657.056 923.54C526.093 820.539 405.278 720.489 318.972 613.82c-72.463-89.644-113.174-186.225-96.055-265.406"/><path d="M651.88 919.581c-82.115-61.077-160.707-121.839-230.885-184.62M668.509 933.122c-89.897-79.914-175.63-159.149-248.398-241.081-66.592-75.011-119.62-149.43-146.965-223.084-23.906-64.503-25.113-131.285-1.233-185.193 24.404-54.97 73.518-101.274 132.65-137.207"/><path d="M719.815 995.206c-68.892-114.26-136.247-228.723-189.477-344.39-49.554-107.741-84.507-211.68-89.539-306.712-4.384-83.743 19.387-162.579 69.208-214.918 51.179-53.67 130.301-85.339 217.235-96.1"/><path d="M741.358 1039.104C665.69 844.278 591.834 649.582 561.141 463.086c-13.697-83.402-17.442-161.39-5.188-229.265 11.006-60.789 36.797-114.255 75.859-149.351M847.035 1626.383c43.392-.103 97.833-10.844 159.865-29.03 69.35-20.346 141.863-48.814 212.612-86.329"/><path d="M970.204 1599.451c70.773-32.081 135.38-92.469 187.343-169.589 56.566-84.03 98.673-186.702 125.773-299.154"/><path d="M853.472 1626.282c37.75-1.094 82.778-10.017 133.14-24.64 56.075-16.293 115.306-38.966 175.332-67.998 124.737-60.372 241.738-141.899 317.531-247.049"/><path d="M908.386 1619.483c50.482-10.778 104.125-33.164 158.602-64.474 58.837-33.836 117.243-77.318 173.146-128.883 117.684-108.62 217.823-246.544 279.001-400.757"/><path d="M970.204 1599.451c64.6-29.281 124.164-82.153 173.396-149.677 53.323-73.198 94.985-162.847 124.378-261.869 62.472-210.798 67.585-447.531 15.343-664.725"/><path d="M886.227 1623.421c74.724-10.65 160.056-45.764 248.492-98.38 96.711-57.579 190.541-133.067 271.577-224.079 160.296-180.214 248.058-419.699 202.617-631.96"/><path d="M931.509 1613.662c78.841-22.996 159.506-74.553 234.52-145.203 81.45-76.768 153.766-173.57 210.825-283.528 116.599-224.969 158.17-492.178 85.5-716.417"/><path d="M970.204 1599.451c101.854-46.188 189.488-150.371 249.255-281.077 65.935-144.39 98.978-315.506 99.012-491.43-.034-175.924-33.077-347.04-99.012-491.43-59.767-130.707-147.401-234.89-249.255-281.077"/><path d="M910.704 1618.979c55.811-12.338 115.106-38.786 174.857-75.861 64.672-40.153 128.135-91.734 187.633-152.696 124.559-127.712 224.287-288.666 271.334-462.989 45.364-168.49 35.101-347.316-35.159-494.311-69.77-145.685-198.26-263.021-349.318-331.057"/><path d="M944.169 1609.681c115.65-39.179 227.547-140.759 316.053-275.181 96.124-146.151 160.553-323.68 178.96-507.557 17.948-180.224-11.434-360.344-92.047-503.448-76.528-135.62-204.075-236.895-347.342-275.35M845.164 1602.402c5.403-16.838 9.731-38.474 13.819-64.423 4.741-30.108 8.781-64.466 12.426-102.816 8.329-87.708 13.982-188.832 17.766-300.762M835.556 1626.7c2.895-.287-3.846-8.909-17.532-18.38-20.474-14.163-48.543-31.416-82.958-52.911-40.441-25.259-86.267-54.043-136.014-87.107-53.677-35.68-109.613-74.779-165.807-118.033-115.538-88.959-223.851-188.203-301.446-301.515C60.41 944.395 21.192 827.228 32.767 719.021M838.868 1624.876c4.231-5.95-6.245-20.677-20.318-38.668-19.215-24.555-45.548-53.773-77.064-88.651-36.318-40.191-77.182-85.01-120.768-135.003-46.728-53.602-94.844-111.106-142.1-172.849-97.154-126.971-184.42-262.781-238.219-405.412-49.876-132.408-65.684-268.638-31.504-383.818"/><path d="M840.144 1622.101c2.359-7.407-2.084-19.57-8.868-34.617-8.723-19.337-21.402-41.981-36.879-68.261-37.615-63.859-86.284-139.629-139.475-228.363-120.75-201.47-242.067-425.05-291.064-658.014M843.303 1608.839c3.613-13.962 5.076-32.385 5.662-54.678.686-26.233-.072-56.365-1.735-90.212-3.858-78.407-12.142-169.596-22.23-271.728-22.515-227.884-50.624-468.506-64.521-699.761"/><path d="M838.488 1625.345c6.419-7.035-13.449-28.534-38.385-55.424-34.328-37.01-79.525-81.491-131.84-135.201-59.231-60.814-123.021-128.388-186.711-203.732-65.986-78.076-128.837-160.863-182.504-248.652C196.427 814.353 135.862 632.483 163.75 474.698c26.387-148.402 138.362-276.109 280.759-350.579"/><path d="M840.263 1621.715c4.587-15.373-10.812-43.493-30.893-80.876-26.303-48.95-61.45-107.017-101.438-175-44.784-76.14-92.749-159.318-139.483-249.51-48.331-93.295-93.302-190.041-129.534-289.385-35.35-96.978-61.262-193.528-71.56-286.902-9.628-87.551-4.868-171.585 18.636-244.633 43.51-134.854 169.816-233.622 315.88-258.596"/><path d="M841.271 1617.638c3.711-16.888-3.429-43.833-13.899-78.702-13.226-44.026-32.115-95.835-54.221-155.47-24.773-66.828-52.371-139.741-80.522-218.367-29.605-82.696-58.806-168.766-85.037-257.467-52.315-176.986-90.079-351.082-88.052-509.772.939-71.409 10.518-137.593 31.648-194.083 19.447-51.92 49.873-96.29 88.885-126.137M843.862 1606.756c6.54-23.558 8.922-57.175 10.201-99.42 1.533-50.823.689-109.814-1.466-176.235-2.376-73.146-6.317-152.07-11.079-235.766-4.974-87.393-10.708-177.259-16.517-268.391s-11.543-180.998-16.517-268.391c-4.762-83.696-8.703-162.62-11.079-235.766-2.155-66.422-3-125.412-1.466-176.235 1.279-42.245 3.661-75.862 10.201-99.42"/><path d="M845.164 1602.402c10.889-33.949 17.74-83.842 24.282-147.384 7.858-76.396 13.463-164.656 17.555-262.873 9.066-217.938 9.716-449.132 2.174-672.659"/><path d="M845.164 1602.402c8.033-25.04 13.767-59.666 19.199-102.7 6.447-51.109 11.528-110.1 15.776-176.194 4.65-72.397 8.053-150.345 10.392-232.822 2.434-85.933 3.629-174.247 3.63-263.742-.001-89.496-1.196-177.809-3.63-263.742-2.339-82.477-5.742-160.424-10.392-232.822-4.249-66.095-9.33-125.086-15.776-176.194-5.432-43.034-11.165-77.66-19.199-102.7M991.716 1500.038c68.315-1.407 130.221-3.59 184.05-6.903 44.52-2.742 78.817-5.486 101.515-10.563M890.532 1539.827c38.486-31.139 83.156-66.268 132.154-106.339 53.256-43.557 109.19-90.888 165.453-142.765M961.848 1504.158c93.206-22.88 188.159-47.571 278.287-78.033 82.951-28.051 154.746-57.38 202.02-96.483"/><path d="M902.485 1530.945c46.623-31.792 100.062-67.256 157.991-107.712 62.198-43.442 126.577-90.461 190.122-142.24 127.974-104.314 242.954-219.049 309.369-347.51M859.6 1573.021c26.831-39.701 60.033-89.836 97.527-150.463 42.678-69.017 87.7-146.414 131.732-231.756 93.602-181.486 173.244-377.437 199.975-573.558"/><path d="M905.648 1528.835c64.283-41.947 139.637-89.552 220.544-145.825 86.017-59.837 172.17-124.949 250.662-198.079 76.116-70.947 141.684-146.584 185.769-227.254 40.775-74.692 61.528-155.107 55.358-230.777M873.02 1556.166c49.585-53.631 112.894-120.096 182.934-201.43 77.751-90.305 156.587-190.185 226.216-300.23 69.287-109.554 125.733-223.712 156.222-339.017 28.513-108.017 32.106-216.703 3.82-311.3M852.636 1584.633c15.56-29.595 33.554-67.157 53.695-112.3 23.115-51.817 47.531-110.388 72.272-175.223 54.65-143.251 105.79-302.283 140.602-470.166 34.186-165.047 49.975-325.625 30.338-467.71-17.253-124.359-67.112-232.106-146.41-286.508"/><path d="M877.116 1551.901c34.6-34.714 76.021-75.186 122.119-122.264 50.93-52.016 104.804-109.173 158.834-172.024 113.059-131.553 217.187-275.624 281.113-430.669 58.998-143.295 75.486-294.079 31.549-418.245-43.094-121.443-144.28-221.664-266.826-285.406"/><path d="M860.389 1571.867c24.757-35.802 55-80.149 89.133-133.156 38.69-60.09 79.825-127.319 120.952-201.465 88.286-159.214 168.098-333.043 210.838-513.323 39.832-168.329 41.009-334.515-18.94-461.027C1206.654 145.603 1088.705 62.713 955.386 38.1M1040.082 1522.413c9.234 29.122-5.317 59.833-33.182 74.94-34.997 18.934-84.614 26.072-140.88 27.669"/><path d="M1040.459 1536.569c6.567-29.453-1.184-65.531-17.773-103.082-19.365-43.79-49.783-89.972-86.888-139.165"/><path d="M1034.247 1512.788c-19.355-19.995-46.62-39.923-79.592-61.14-37.64-24.214-81.166-48.904-129.302-75.12-106.965-58.248-226.205-118.247-346.735-186.823-119.321-67.904-229.917-137.673-316.058-216.893C87.965 904.155 35.991 827.257 31.455 753.293"/><path d="M1041.219 1529.756c-.202-27.785-13.87-59.58-35.135-92.746-24.897-38.803-59.433-79.12-100.173-122.065-93.073-98.078-207.453-198.747-322.78-310.89C467.837 891.924 361.819 779.883 289.85 662.05c-62.636-102.661-92.848-210.882-70.136-300.179"/><path d="M1040.968 1533.702c5.227-40.017-16.311-89.717-50.743-142.038-41.363-62.81-99.124-128.357-165.225-199.443-146.498-157.519-310.198-313.794-430.791-487.673"/><path d="M1024.254 1563.556c41.343-43.247 60.14-112.407 58.528-188.539-1.907-87.977-26.495-186.271-62.081-290.945-38.303-112.604-87.633-226.928-138.448-342.521-50.118-114.002-99.158-222.717-137.829-326.165"/><path d="M1041.196 1531.071c1.425-35.338-18.453-77.279-49.028-121.402-36.462-52.586-86.572-107.302-144.467-166.351-130.069-132.63-279.995-266.28-408.786-416.375-60.729-70.805-113.308-141.603-151.174-213.085-34.555-65.283-55.956-131.019-57.584-192.445-2.881-112.433 75.518-217.089 183.212-280.103"/><path d="M1036.2 1547.611c20.307-37.654 19.812-90.261 4.929-145.749-17.501-65.13-52.144-135.408-95.561-210.713-97.987-169.876-225.766-340.509-331.516-521.712-49.597-85.02-91.366-167.316-117.653-246.795-23.575-71.357-33.644-139.87-22.441-198.456 10.317-53.742 41.56-101.39 85.657-132.669 47.127-33.379 109.464-52.349 177.461-59.559"/><path d="M1030.781 1555.946c23.216-30.615 34.466-72.753 34.518-118.569.034-51.557-12.484-108.948-32.627-170.034-22.086-66.933-52.764-136.758-88.091-209.443C907.618 981.86 866.598 904.974 825 826.944s-82.618-154.916-119.582-230.956c-35.326-72.685-66.004-142.51-88.091-209.443-20.143-61.087-32.661-118.477-32.627-170.034.052-45.816 11.302-87.954 34.518-118.569"/><path d="M1009.927 1576.248c39.012-29.847 69.438-74.217 88.885-126.137 21.13-56.49 30.709-122.673 31.648-194.083 2.027-158.69-35.737-332.786-88.052-509.772-26.23-88.701-55.432-174.77-85.037-257.467-28.151-78.626-55.748-151.54-80.522-218.367-22.106-59.635-40.995-111.444-54.221-155.47-10.47-34.869-17.61-61.814-13.899-78.702"/><path d="M1018.188 1569.418c39.062-35.095 64.853-88.561 75.859-149.351 12.254-67.876 8.509-145.863-5.188-229.266-30.693-186.496-104.549-381.192-180.217-576.018"/><path d="M1003.133 1581.161c79.298-54.402 129.157-162.149 146.41-286.508 19.637-142.085 3.848-302.663-30.338-467.71-34.812-167.883-85.952-326.915-140.602-470.166-24.741-64.835-49.157-123.406-72.272-175.223-20.141-45.143-38.134-82.705-53.695-112.3M1069.046 1586.834c224.578-72.236 414.637-251.349 500.051-471.253"/><path d="M1069.046 1586.834c205.785-66.182 383.212-221.256 476.342-416.332 92.971-195.151 101.802-430.63 23.709-632.196"/><path d="M1069.046 1586.834c316.76-101.95 553.862-427.128 554.072-759.89-.21-332.762-237.312-657.94-554.072-759.89"/><path d="M876.078 1624.661c93.766-4.12 177.95-31.35 194.445-85.054 8.355-27.363-.048-62.347-18.963-97.435-22.689-42.044-58.705-85.749-102.724-132.385"/><path d="M952.327 1616.342c121.279-21.686 229.942-90.117 287.808-190.217 61.024-105.786 72.397-248.876 47.652-396.376"/><path d="M1035.997 1594.841c200.484-66.978 370.088-248.165 446.531-469.782M853.082 1625.266c45.957-.45 86.158-4.047 116.254-15.237 22.717-8.464 36.849-27.444 30.507-44.738-8.934-24.254-38.617-49.108-78.077-76.878-48.895-34.396-109.922-69.905-179.275-109.522-156.798-89.565-328.219-181.95-477.088-297.097-68.794-53.24-128.302-108.556-170.921-167.636-38.303-53.145-61.913-110.656-63.224-165.632"/><path d="M875.78 1624.674c58.038-2.517 109.905-11.702 147.854-32.806 31.906-17.776 52.097-50.188 49.035-83.994-3.723-40.627-31.421-86.585-70.832-135.168-46.712-57.551-107.835-116.75-176.837-180.485-151.913-140.294-318.631-278.799-449.562-435.079-59.428-70.977-107.617-142.032-135.846-212.911-25.329-63.683-33.11-128.822-19.054-185.635"/><path d="M879.341 1624.51c86.713-4.257 164.24-25.959 192.459-73.943 26.873-45.891-1.425-121.745-57.108-195.758-33.715-44.784-75.754-90.782-123.112-139.139-50.704-51.766-105.928-104.496-163.119-159.297-117.456-112.546-234.22-224.343-327.792-343.086"/><path d="M919.106 1621.241c104.589-12.26 198.658-57.058 243.837-130.913 46.272-75.84 43.65-186.868 8.439-300.623-40.843-131.732-116.418-267.071-200.754-406.223-85.04-140.289-172.292-271.016-238.786-396.118"/><path d="M878.159 1624.567c68.459-3.228 129.25-15.9 167.309-45.976 32.147-25.464 41.634-73.384 24.256-119.192-22.35-58.773-73.484-121.122-138.175-189.384-73.94-77.996-161.031-157.611-251.569-243.124-92.367-87.245-182.639-174.677-260.312-265.998-72.031-84.724-129.942-169.119-159.737-252.817-26.205-73.747-27.167-149.752.136-211.045 27.76-62.18 83.276-114.188 149.887-153.71"/><path d="M902.432 1622.943c78.381-6.867 149.203-29.035 194.504-71.183 41.992-39.146 59.967-102.854 50.078-168.785-11.725-77.816-53.142-162.914-108.445-252.882C977.37 1030.573 902.294 930.435 825 826.944s-152.37-203.63-213.57-303.148c-55.303-89.968-96.72-175.066-108.445-252.882-9.888-65.932 8.087-129.64 50.079-168.785 45.302-42.148 116.123-64.316 194.504-71.184"/><path d="M912.923 1621.929c67.997-7.21 130.334-26.18 177.461-59.559 44.097-31.278 75.34-78.927 85.657-132.669 11.203-58.586 1.135-127.099-22.441-198.456-26.288-79.479-68.057-161.776-117.653-246.795-105.749-181.203-233.528-351.836-331.515-521.712-43.417-75.305-78.06-145.583-95.561-210.713-14.884-55.487-15.378-108.094 4.929-145.748"/><path d="M948.129 1617.074c146.064-24.974 272.37-123.742 315.879-258.596 23.504-73.048 28.264-157.082 18.636-244.633-10.298-93.374-36.21-189.924-71.56-286.902-36.232-99.344-81.202-196.09-129.534-289.385-46.734-90.192-94.699-173.37-139.483-249.51-39.988-67.983-75.135-126.05-101.438-175-20.081-37.383-35.48-65.502-30.893-80.876"/><path d="M922.758 1620.802c86.934-10.761 166.055-42.43 217.235-96.1 49.821-52.339 73.593-131.175 69.208-214.918-5.032-95.031-39.985-198.971-89.539-306.712-53.23-115.667-120.585-230.13-189.477-344.39"/><path d="M982.862 1610.011c96.911-22.921 186.497-73.611 253.855-145.739 68.855-73.82 116.725-171.797 140.138-279.341C1426.963 954 1371.974 690.698 1261.2 461.67"/><path d="M1035.997 1594.841c183.342-61.242 341.774-217.568 424.915-413.428 85.963-202.934 93.772-442.863 21.616-652.585"/><path d="M955.386 1615.787c133.318-24.613 251.268-107.503 306.985-224.797 59.949-126.511 58.772-292.698 18.94-461.027-42.74-180.28-122.552-354.109-210.838-513.323-41.127-74.146-82.261-141.375-120.952-201.465-34.133-53.007-64.376-97.354-89.133-133.156"/><path d="M999.793 1605.742c143.267-38.455 270.813-139.73 347.341-275.35 80.614-143.104 109.995-323.224 92.047-503.448-18.407-183.877-82.837-361.406-178.96-507.557-88.505-134.422-200.403-236.001-316.053-275.181"/><path d="M1035.997 1594.841c141.224-47.157 268.79-149.959 356.383-284.353 90.618-139.222 139.521-310.674 139.569-483.544-.048-172.87-48.952-344.322-139.569-483.544-87.593-134.394-215.159-237.196-356.383-284.353"/><path d="M1189.351 1526.925c120.19-62.701 229.604-148.891 300.99-256.036"/><path d="M1116.608 1562.762c169.08-77.074 320.753-215.053 413.547-386.681 91.173-168.911 117.636-369.583 68.682-548.091"/><path d="M1087.764 1575.355c282.801-118.054 504.806-425.846 519.849-748.411 14.252-313.814-192.057-622.881-480.862-739.052"/><path d="M1277.92 1484.761c13.469-14.031-2.537-40.91-37.785-58.635-24.367-12.242-54.844-23.723-90.557-35.581-40.484-13.438-86.056-26.7-136.091-40.485"/><path d="M1242.005 1509.4c91.839-54.964 160.531-140.899 163.502-234.953 1.547-50.392-12.954-104.886-38.957-158.982-28.618-59.482-70.456-119-120.395-178.78"/><path d="M1226.748 1518.245c99.305-55.922 179.574-139.29 206.671-238.048"/><path d="M1274.818 1487.543c18.437-15.096 28.597-36.695 22.257-55.45-7.801-22.978-33.679-45.307-68.643-67.225-43.351-27.158-98.922-52.953-163.853-80.106-72.756-30.418-153.425-60.645-239.579-92.541-181.82-67.311-365.455-132.43-526.759-210.667-71.766-34.825-134.479-70.205-183.35-109.077-41.645-33.149-72.281-69.233-81.57-105.891"/><path d="M1262.437 1496.517c38.108-25.623 68.245-57.758 78.404-94.089 10.034-36.021-.893-79.702-27.099-120.277-31.356-48.49-81.637-96.088-143.177-144.894-69.087-54.77-149.36-108.457-235.933-163.926-181.774-116.447-367.115-223.57-516.968-343.214-65.121-52.021-119.143-103.443-154.496-156.267-30.174-45.134-45.153-93.321-38.354-135.28"/><path d="M1265.938 1494.127c46.808-32.511 76.016-82.769 63.345-129.307-15.78-57.655-76.803-115.863-157.901-175.115-97.546-71.23-217.341-139.465-346.849-212.693C690.906 901.457 558.414 828.106 439.808 749.5"/><path d="M1238.927 1511.229c85.62-50.567 153.317-124.515 170.192-209.938 17.607-89.631-18.896-196.628-85.786-299.173-76.829-117.674-185.493-229.644-301.787-342.48-115.54-112.089-228.303-213.228-317.491-312.399"/><path d="M1258.581 1499.07c47.759-31.204 85.27-72.001 95.577-118.114 10.417-46.838-8.188-103.257-45.685-156.18-44.928-63.344-112.997-125.186-193.767-189.074C1026.041 965.589 926.96 897.354 825 826.944S623.959 688.298 535.294 618.185c-80.771-63.889-148.84-125.73-193.767-189.074-37.497-52.923-56.102-109.342-45.685-156.18 10.307-46.113 47.818-86.91 95.577-118.114"/><path d="M1240.046 1510.567c66.611-39.522 122.127-91.53 149.887-153.71 27.304-61.293 26.341-137.298.136-211.045-29.794-83.697-87.705-168.093-159.736-252.817-77.673-91.321-167.945-178.754-260.312-265.998-90.538-85.512-177.629-165.128-251.569-243.124-64.692-68.262-115.825-130.611-138.176-189.384-17.378-45.808-7.891-93.728 24.256-119.192 38.058-30.076 98.85-42.748 167.309-45.976"/><path d="M1236.631 1512.578c107.694-63.014 186.093-167.67 183.212-280.103-1.629-61.426-23.029-127.162-57.584-192.445-37.866-71.482-90.445-142.281-151.174-213.085C1082.294 676.85 932.368 543.199 802.299 410.57c-57.896-59.048-108.005-113.765-144.467-166.351-30.574-44.123-50.452-86.064-49.028-121.402"/><path d="M1205.491 1529.768c142.397-74.47 254.372-202.177 280.759-350.579 27.888-157.785-32.677-339.655-135.299-507.639-53.668-87.789-116.519-170.575-182.504-248.652-63.69-75.344-127.48-142.918-186.711-203.732-52.315-53.71-97.512-98.191-131.84-135.201-24.936-26.89-44.804-48.389-38.385-55.424"/><path d="M1245.437 1507.331c59.132-35.933 108.245-82.237 132.65-137.207 23.88-53.909 22.673-120.69-1.233-185.193-27.346-73.654-80.373-148.074-146.965-223.084-72.768-81.933-158.501-161.167-248.398-241.081"/><path d="M1195.222 1535.044c185.993-94.036 320.364-282.23 319.085-485.468-1.662-224.574-132.468-456.555-295.841-654.349"/><path d="M1157.24 1553.082c167.232-74.628 306.999-210.509 372.915-377.001 66.791-169.113 57.752-371.689-13.705-554.38"/><path d="M1203.905 1530.595c122.546-63.742 223.732-163.964 266.826-285.406 43.937-124.166 27.449-274.951-31.549-418.245-63.926-155.044-168.054-299.115-281.113-430.669-54.03-62.851-107.905-120.007-158.834-172.024-46.098-47.078-87.519-87.551-122.119-122.264"/><path d="M1160.052 1551.822c151.058-68.037 279.547-185.373 349.318-331.057 70.26-146.995 80.523-325.821 35.159-494.311-47.047-174.323-146.775-335.277-271.334-462.989-59.498-60.962-122.96-112.543-187.633-152.696-59.751-37.075-119.045-63.523-174.857-75.861"/><path d="M1126.75 1565.996c288.805-116.171 495.115-425.239 480.862-739.052-15.043-322.566-237.047-630.357-519.849-748.411"/><path d="M1050.311 1354.629c92.029-1.489 175.121-3.791 247.034-7.287 59.041-2.873 103.992-5.664 133.371-11.051M1156.318 1316.327c167.898-116.666 326.544-243.646 409.943-394.65M1283.32 1130.708c47.36-196.874 47.36-410.654 0-607.528"/><path d="M1154.13 1317.831c124.513-84.74 244.252-175.718 335.417-280.932 81.759-94.445 133.611-201.385 129.014-301.06"/><path d="M1234.573 1237.507c177.023-252.856 290.997-562.667 213.836-812.97"/><path d="M1283.32 1130.708c52.242-217.194 47.129-453.928-15.343-664.725-29.393-99.022-71.055-188.67-124.378-261.869-49.232-67.524-108.796-120.397-173.396-149.677"/><path d="M1218.466 1258.66c163.373-197.794 294.179-429.775 295.841-654.349 1.279-203.238-133.092-391.431-319.085-485.468"/><path d="M1261.199 1192.218c110.774-229.029 165.762-492.331 115.655-723.261-23.413-107.544-71.282-205.521-140.138-279.341-67.358-72.128-156.944-122.818-253.855-145.739M991.795 1341.876c-85.345-41.369-182.435-82.784-286.218-127.946-107.657-46.85-215.654-94.435-317.929-146.454-96.344-49.016-182.212-98.811-248.965-154.249-56.926-47.313-97.93-99.505-106.312-151.303M949.303 1310.28c-69.161-72.675-153.007-147.067-242.298-227.495-92.538-83.354-185.137-167.381-268.09-255.841-78.15-83.367-144.003-166.59-184.797-250.925-35.993-74.502-49.813-151.675-33.532-217.619"/><path d="M942.317 1302.487c-75.803-89.659-170.357-181.723-269.008-282.137-100.798-102.607-198.31-205.098-276.553-312.221M892.393 1187.978C854.999 950.681 795 703.205 757.607 465.909"/><path d="M945.945 1306.648c-89.188-99.172-201.951-200.31-317.491-312.399-116.294-112.836-224.958-224.806-301.787-342.48-66.889-102.545-103.393-209.542-85.786-299.173 16.875-85.423 84.572-159.371 170.192-209.938"/><path d="M918.157 1266.523c-66.494-125.102-153.745-255.829-238.786-396.118-84.335-139.151-159.911-274.491-200.754-406.223-35.211-113.755-37.833-224.782 8.439-300.623 45.18-73.855 139.249-118.652 243.838-130.912"/><path d="M905.576 1238.5c-38.67-103.448-87.711-212.164-137.829-326.165-50.815-115.593-100.145-229.917-138.448-342.521-35.586-104.674-60.174-202.967-62.081-290.945-1.612-76.131 17.185-145.292 58.528-188.539M889.521 1161.428C875.624 930.173 847.515 689.55 825 461.666c-10.088-102.132-18.372-193.321-22.23-271.728-1.663-33.847-2.421-63.979-1.735-90.212.585-22.292 2.049-40.716 5.662-54.678M889.175 1134.402c6.829-202.353 6.829-412.563 0-614.916"/><path d="M889.175 1134.402c7.543-223.527 6.892-454.721-2.174-672.659-4.092-98.218-9.697-186.478-17.555-262.873-6.542-63.542-13.393-113.435-24.282-147.384M1118.654 877.338c119.493-.185 226.917-.47 319.399-.903 39.899-.187 75.256-.394 105.885-.642 25.757-.209 46.538-.422 62.275-.713M998.12 919.581c82.114-61.077 160.707-121.839 230.885-184.62M1095.469 878.869c65.869-8.585 128.967-17.208 188.719-26.145 56.051-8.385 107.881-16.837 154.995-25.78 42.332-8.038 79.467-16.148 110.855-25.14 26.174-7.503 47.04-14.95 60.628-24.331"/><path d="M992.944 923.54c130.963-103.002 251.779-203.051 338.084-309.72 72.463-89.644 113.174-186.225 96.055-265.406M908.642 1039.104c75.668-194.826 149.524-389.523 180.217-576.019 13.697-83.402 17.442-161.39 5.188-229.265-11.005-60.789-36.797-114.255-75.859-149.351"/><path d="M981.491 933.122c89.897-79.914 175.63-159.149 248.398-241.081 66.592-75.011 119.62-149.43 146.965-223.084 23.906-64.503 25.113-131.285 1.233-185.193-24.404-54.97-73.517-101.274-132.65-137.207"/><path d="M930.185 995.206c68.892-114.26 136.247-228.723 189.477-344.39 49.554-107.741 84.507-211.68 89.539-306.712 4.384-83.743-19.387-162.579-69.208-214.918-51.179-53.67-130.301-85.339-217.235-96.1M1235.125 924.685c68.551 67.806 125.338 135.228 160.68 203.435 30.942 59.785 43.514 122.14 31.582 175.97"/><path d="M1132.131 877.832c-231.01-17.422-469.815-32.773-693.215-50.888-99.448-8.067-187.693-15.98-262.745-24.923-60.778-7.246-106.703-13.374-135.108-23.652M1194.605 895.264c-216.357-110.827-454.744-203.909-666.122-310.31-91.937-46.296-170.383-90.676-227.731-138.35-45.892-38.184-76.035-80.382-74.849-118.06M1148.269 879.828c-212.046-36.692-434.491-69.077-646.537-105.769M1253.243 945.758C1175 838.635 1077.488 736.144 976.69 633.537 878.04 533.123 783.485 441.059 707.683 351.4"/><path d="M1210.192 904.387c-118.606-78.606-251.098-151.957-384.724-227.511-129.508-73.229-249.303-141.463-346.849-212.693-81.098-59.252-142.121-117.46-157.901-175.115-12.671-46.538 16.537-96.796 63.345-129.307M1249.331 940.601c-93.572-118.742-210.336-230.54-327.792-343.086-57.191-54.8-112.416-107.531-163.119-159.297-47.358-48.357-89.397-94.355-123.112-139.139-55.683-74.013-83.981-149.868-57.108-195.758 28.219-47.984 105.746-69.686 192.459-73.943"/><path d="M1255.791 949.339C1135.198 775.461 971.498 619.185 825 461.666c-66.101-71.086-123.862-136.633-165.225-199.443-34.432-52.322-55.97-102.021-50.743-142.038"/><path d="M1286.142 1021.041c-48.996-232.964-170.314-456.544-291.064-658.014-53.192-88.734-101.861-164.503-139.475-228.363-15.477-26.28-28.157-48.923-36.879-68.261-6.784-15.047-11.227-27.21-8.868-34.617M1229.005 918.927c-70.178-62.781-148.77-123.543-230.885-184.62"/><path d="M1288.834 1036.644c-26.732-196.122-106.374-392.073-199.975-573.558-44.031-85.342-89.054-162.739-131.732-231.756-37.494-60.627-70.696-110.762-97.527-150.463M1569.097 1115.581c70.956-183.122 70.956-394.153 0-577.275"/><path d="M1569.097 1115.581c78.094-201.567 69.263-437.045-23.709-632.196-93.13-195.075-270.557-350.149-476.342-416.332M1424.683 1332.184c-5.201-18.575-26.166-36.427-54.63-53.146-35.655-20.927-81.934-40.108-136.635-59.851-62.096-22.405-132.003-44.172-208.178-66.687-81.122-23.976-166.346-47.839-253.927-72.658-88.613-25.112-176.758-50.345-262.527-76.795-82.55-25.461-160.145-51.135-230.769-78.504-64.131-24.861-120.077-49.993-164.891-77.784-37.63-23.352-66.506-48.303-78.156-75.193"/><path d="M1424.539 1319.858c3.929-32.957-8.632-70.067-32.73-104.699-28.196-40.479-70.874-79.802-122.771-119.382-58.048-44.255-125.7-87.296-199.723-131.12-78.098-46.231-160.494-91.56-244.315-137.713s-166.217-91.483-244.316-137.712c-74.023-43.824-141.675-86.864-199.723-131.12-51.896-39.581-94.575-78.903-122.77-119.382-24.098-34.633-36.659-71.742-32.73-104.699"/><path d="M1424.097 1325.344c1.187-37.678-28.956-79.877-74.849-118.06-57.348-47.674-135.794-92.054-227.731-138.35C910.138 962.532 671.751 869.45 455.395 758.623"/><path d="M1429.413 1295.488c16.281-65.944 2.461-143.117-33.532-217.619-40.793-84.335-106.647-167.559-184.797-250.925-82.953-88.46-175.551-172.487-268.09-255.841-89.291-80.428-173.138-154.82-242.298-227.495"/><path d="M1425.186 1315.317c6.798-41.959-8.18-90.146-38.354-135.28-35.353-52.824-89.375-104.246-154.496-156.267-149.853-119.643-335.194-226.766-516.967-343.215-86.573-55.468-166.846-109.155-235.933-163.926-61.541-48.805-111.821-96.403-143.177-144.894-26.207-40.575-37.133-84.256-27.099-120.277 10.159-36.331 40.296-68.466 78.404-94.089"/><path d="M1429.462 1295.291c14.056-56.813 6.275-121.951-19.054-185.635-28.229-70.879-76.418-141.934-135.846-212.911C1143.631 740.465 976.913 601.96 825 461.666c-69.002-63.735-130.126-122.934-176.837-180.485-39.411-48.583-67.109-94.54-70.832-135.168-3.062-33.807 17.129-66.218 49.035-83.994 37.949-21.104 89.816-30.289 147.854-32.806"/><path d="M1430.286 1292.016c22.712-89.297-7.5-197.518-70.136-300.179-71.969-117.834-177.987-229.874-293.281-342.006-115.327-112.143-229.707-212.811-322.78-310.89-40.74-42.945-75.276-83.261-100.173-122.065-21.265-33.166-34.933-64.961-35.135-92.746"/><path d="M1441.105 1253.412c34.18-115.18 18.372-251.409-31.504-383.818-53.799-142.631-141.065-278.441-238.219-405.412-47.256-61.743-95.372-119.247-142.1-172.849-43.585-49.992-84.45-94.811-120.768-135.003-31.516-34.878-57.849-64.096-77.064-88.651-14.073-17.991-24.549-32.719-20.318-38.668"/><path d="M1427.083 1305.474c17.119-79.181-23.592-175.762-96.055-265.406-86.305-106.669-207.121-206.719-338.084-309.72M1448.408 1229.35c77.161-250.302-36.813-560.114-213.836-812.97"/><path d="M1482.528 1125.06c65.504-190.364 65.504-405.868 0-596.232M1442.213 1249.698c28.285-94.597 24.693-203.283-3.82-311.3-30.489-115.305-86.935-229.463-156.222-339.017-69.63-110.044-148.466-209.925-226.216-300.229-70.04-81.334-133.349-147.799-182.934-201.43"/><path d="M1462.354 1185.374c72.669-224.239 31.099-491.448-85.5-716.417-57.059-109.958-129.376-206.76-210.825-283.528-75.014-70.65-155.679-122.207-234.52-145.203"/><path d="M1482.528 1125.06c72.157-209.722 64.347-449.651-21.616-652.585-83.141-195.86-241.573-352.186-424.915-413.428M1569.443 916.018c32.79-57.215 50.945-118.313 49.26-176.485"/><path d="M1516.45 1032.187c71.457-182.691 80.496-385.267 13.705-554.38-65.916-166.492-205.683-302.373-372.915-377.001"/><path d="M1607.996 875.248c-21.76-4.686-53.539-7.844-94.659-11.331-50.164-4.252-108.964-8.064-175.686-11.912-73.819-4.255-153.823-8.306-238.924-12.394-89.016-4.275-180.7-8.439-273.727-12.668s-184.712-8.393-273.727-12.668c-85.101-4.087-165.105-8.138-238.924-12.394-66.722-3.847-125.522-7.66-175.686-11.912-41.12-3.487-72.899-6.645-94.659-11.331"/><path d="M1615.029 882.322c-11.651-26.89-40.526-51.841-78.156-75.193-44.814-27.791-100.759-52.923-164.891-77.784-70.623-27.369-148.218-53.042-230.769-78.504-85.769-26.45-173.914-51.683-262.527-76.795-87.581-24.819-172.804-48.683-253.927-72.658-76.174-22.516-146.082-44.282-208.178-66.687-54.701-19.743-100.98-38.924-136.635-59.851-28.464-16.719-49.429-34.572-54.63-53.146"/><path d="M1608.938 875.518c-28.405-10.278-74.329-16.406-135.108-23.652-75.053-8.942-163.297-16.855-262.745-24.923-223.401-18.116-462.205-33.467-693.215-50.888"/><path d="M1617.628 891.964c-8.381-51.799-49.386-103.991-106.312-151.303-66.753-55.438-152.621-105.232-248.965-154.249-102.275-52.019-210.272-99.604-317.929-146.454-103.783-45.163-200.872-86.578-286.217-127.947"/><path d="M1616.679 887.302c-9.289-36.658-39.924-72.742-81.57-105.891-48.871-38.872-111.584-74.252-183.35-109.077C1190.455 594.096 1006.82 528.977 825 461.666c-86.155-31.896-166.823-62.123-239.579-92.541-64.93-27.153-120.502-52.947-163.853-80.106-34.964-21.918-60.842-44.248-68.643-67.225-6.34-18.755 3.82-40.353 22.257-55.45"/><path d="M1618.742 905.361c-1.311-54.976-24.921-112.487-63.224-165.632-42.62-59.08-102.128-114.396-170.921-167.636-148.87-115.146-320.29-207.532-477.088-297.097-69.352-39.618-130.38-75.127-179.275-109.522-39.46-27.77-69.143-52.625-78.077-76.878-6.342-17.293 7.79-36.274 30.507-44.738 30.096-11.19 70.297-14.786 116.254-15.237"/><path d="M1618.545 900.595c-4.536-73.965-56.51-150.863-131.105-219.52-86.141-79.219-196.737-148.988-316.058-216.893-120.53-68.576-239.771-128.575-346.735-186.823-48.136-26.216-91.662-50.906-129.302-75.12-32.972-21.217-60.237-41.145-79.592-61.14"/><path d="M1617.233 934.866c11.575-108.207-27.643-225.374-99.032-329.733-77.595-113.311-185.908-212.555-301.446-301.515-56.194-43.255-112.129-82.353-165.807-118.033-49.747-33.064-95.572-61.848-136.014-87.107-34.415-21.494-62.484-38.748-82.958-52.911-13.687-9.471-20.427-18.093-17.532-18.38"/><path d="M1610.665 876.415c-13.588-9.38-34.454-16.828-60.628-24.331-31.388-8.992-68.524-17.103-110.855-25.14-47.114-8.943-98.944-17.395-154.995-25.78-59.752-8.937-122.85-17.56-188.719-26.145"/><path d="M1618.562 918.048c4.597-99.675-47.255-206.616-129.014-301.06-91.165-105.214-210.904-196.192-335.417-280.932"/><path d="M1618.703 914.354c1.685-58.171-16.469-119.27-49.26-176.485"/><path d="M1617.981 926.987c6.17-75.67-14.583-156.085-55.358-230.777-44.085-80.669-109.653-156.307-185.769-227.253-78.492-73.13-164.645-138.242-250.662-198.079C1045.284 214.605 969.93 167 905.648 125.053"/><path d="M1608.913 984.886c45.44-212.261-42.321-451.746-202.617-631.96-81.036-91.012-174.865-166.5-271.577-224.079-88.435-52.616-173.768-87.731-248.492-98.38"/><path d="M1598.837 1025.898c48.954-178.508 22.492-379.181-68.682-548.091-92.794-171.628-244.467-309.607-413.547-386.681M43.787 778.808c15.738-.291 36.519-.505 62.275-.713 30.629-.248 65.985-.455 105.885-.642 92.481-.433 199.906-.718 319.399-.903M83.739 732.21c83.399-151.003 242.045-277.984 409.943-394.65M167.472 528.828c76.443-221.617 246.047-402.804 446.531-469.782"/><path d="M90.033 720.405c66.415-128.461 181.394-243.196 309.369-347.51 63.544-51.779 127.924-98.799 190.122-142.24 57.929-40.456 111.368-75.92 157.991-107.712"/><path d="M130.864 628.519c61.178-154.213 161.317-292.137 279.001-400.757 55.903-51.566 114.309-95.047 173.146-128.883 54.477-31.31 108.12-53.696 158.602-64.474M43.787 778.808c13.467-.249 30.786-.44 51.917-.626 24.882-.218 53.432-.405 85.541-.576 74.345-.396 161.041-.678 258.39-.888 218.272-.47 451.652-.52 679.018-.169M63.015 764.448c35.372-43.959 90.195-83.691 155.998-122.153 73.494-42.938 157.495-82.189 247.546-120.684 92.995-39.745 188.047-76.615 281.563-112.816 89.773-34.751 173.863-67.103 249.258-99.331"/><path d="M43.787 778.808c22.91-.424 55.291-.693 96.913-.964 50.496-.328 109.355-.584 175.919-.799 73.474-.237 152.933-.41 237.332-.529 88.197-.124 178.972-.185 271.049-.185 92.077 0 182.851.061 271.049.185 84.399.119 163.858.292 237.332.529 66.565.215 125.423.471 175.919.799 41.622.271 74.003.54 96.913.964M55.068 773.016c26.167-23.336 64.32-43.744 110.417-63.718 52.848-22.888 113.872-43.89 181.294-64.587C495.634 599.035 659.092 559.628 825 519.42c80.963-19.621 159.098-38.49 233.093-57.402 69.174-17.682 132.512-34.788 188.897-52.385 49.654-15.501 91.825-30.568 124.999-47.066 26.481-13.178 46.453-26.849 53.13-42.104M70.394 754.34c44.328-65.824 115.971-125.827 200.888-183.406 92.22-62.504 195.064-118.592 300.239-172.89 102.768-53.049 200.79-100.396 287.672-146.333 74.872-39.595 135.604-73.98 173.953-109.534"/><path d="M94.635 711.308c97.354-196.182 286.028-355.464 470.656-489.537C646.39 162.896 718.212 116.05 774.559 77.979c39.758-26.865 68.039-49.559 61.487-50.725M60.085 767.925c29.598-33.364 73.619-63.558 126.48-92.835 59.447-32.91 127.887-63.256 202.537-93.06 160.308-63.98 330.532-118.34 493.444-173.71 75.72-25.737 145.846-50.213 208.667-74.866 55.765-21.889 103.346-42.784 140.637-64.867 30.087-17.828 52.537-35.957 60.148-55.03 6.102-15.349-1.3-33.566-16.068-46.281"/><path d="M74.324 748.285c68.026-108.328 192.893-201.564 334.38-290.739 73.064-46.036 147.826-88.653 221.157-129.568C699.965 288.866 765.883 253.013 825 218.629c52.375-30.467 96.686-57.904 129.818-84.821 25.873-21.033 44.073-41.541 44.002-59.063-.216-31.594-69.931-45.474-146.682-46.133M80.903 538.306c85.414-219.904 275.473-399.017 500.051-471.253"/><path d="M219.284 317.597c29.38-5.387 74.331-8.178 133.371-11.051 71.913-3.496 155.005-5.798 247.034-7.287"/><path d="M159.659 382.998c71.385-107.144 180.8-193.334 300.99-256.036"/><path d="M207.845 324.245c47.274-39.103 119.07-68.433 202.02-96.483 90.128-30.462 185.081-55.152 278.287-78.033"/><path d="M170.526 367.292c75.793-105.149 192.794-186.677 317.53-247.049 60.025-29.033 119.256-51.705 175.332-67.998 50.362-14.623 95.39-23.546 133.14-24.64"/><path d="M219.284 317.597c24.835-4.555 61.616-7.17 109.364-9.807 57.995-3.201 125.262-5.48 200.445-7.172 167.77-3.771 346.734-4.175 521.218-1.358"/><path d="M219.284 317.597c18.563-3.405 44.565-5.658 77.518-7.872 39.617-2.659 85.549-4.733 137.24-6.473 118.075-3.969 250.749-5.748 390.958-5.75 140.209.002 272.884 1.781 390.958 5.75 51.691 1.739 97.623 3.814 137.24 6.473 32.953 2.213 58.954 4.467 77.518 7.872"/><path d="M212.998 320.421c32.522-20.863 80.055-36.665 137.153-52.107 65.168-17.614 137.804-32.522 215.14-46.544 79.664-14.439 159.826-26.987 238.099-38.703 74.332-11.124 143.032-20.854 204.421-30.18"/><path d="M192.803 339.171c100.595-112.83 266.883-182.66 424.481-240.379 68.58-25.107 127.176-43.581 172.338-57.455 16.943-5.205 29.959-9.092 38.849-11.982 4.827-1.57 5.449-2.347 2.08-1.692"/><path d="M215.435 319.006c22.218-11.382 52.928-20.288 90.069-28.982 42.998-10.059 91.85-18.78 145.523-27.021 118.132-18.129 245.523-31.92 373.974-44.374 62.267-6.036 122.1-11.426 178.669-16.444 52.58-4.664 100.552-8.836 143.354-12.841 37.237-3.485 68.586-6.606 93.749-9.956 19.012-2.533 32.495-4.008 38.253-8.046"/><path d="M203.835 327.775c63.948-59.351 164.981-101.411 276.467-140.954 113.795-40.342 223.201-70.145 316.263-97.127 38.508-11.166 70.833-20.74 96.066-30.009 18.688-6.868 32.754-12.294 34.372-18.987 2.938-12.47-43.164-12.666-92.21-12.039M222.613 349.798c-11.932 53.83.64 116.185 31.582 175.97 35.342 68.207 92.129 135.629 160.68 203.435"/><path d="M216.581 373.69c27.097-98.759 107.366-182.126 206.671-238.048"/><path d="M225.91 326.196c.917 29.578 25.238 61.658 61.429 90.759 45.066 36.208 106.479 69.867 179.22 104.656 81.832 39.125 173.534 77.103 271.574 116.531 101.92 40.986 205.865 81.439 308.129 123.625"/><path d="M224.882 320.463c6.677 15.255 26.649 28.926 53.13 42.104 33.174 16.498 75.345 31.565 124.999 47.066 56.384 17.597 119.723 34.703 188.897 52.385C665.902 480.93 744.037 499.798 825 519.42c165.908 40.208 329.366 79.616 478.22 125.292 67.422 20.696 128.446 41.699 181.294 64.587 46.098 19.974 84.25 40.382 110.417 63.718"/><path d="M760.825 519.486c3.784-111.93 9.437-213.054 17.766-300.762 3.644-38.349 7.685-72.707 12.426-102.816 4.088-25.949 8.416-47.585 13.819-64.423M531.346 776.549c193.551-.299 393.757-.299 587.308 0M704.915 680.906c81.049-109.071 159.587-210.613 221.824-308.275"/><path d="M531.346 776.549c227.367-.351 460.746-.301 679.018.169 97.349.21 184.045.492 258.39.888 32.109.171 60.659.358 85.542.576 21.131.185 38.45.377 51.917.626M603.739 761.767c102.264-42.186 206.209-82.64 308.129-123.625 98.04-39.428 189.741-77.406 271.574-116.531 72.741-34.789 134.154-68.448 179.22-104.656 36.191-29.102 60.512-61.181 61.429-90.759M697.963 689.866c99.376-122.704 195.243-234.933 265.744-343.263 30.69-47.182 55.04-91.633 69.018-133.419 12.104-36.231 15.73-70.955 6.909-98.915M755.303 567.015c13.353-66.584 26.596-130.359 38.938-190.913C805.813 319.324 816.333 266.74 825 218.629c7.763-43.101 13.822-81.072 17.109-113.726 2.709-26.95 3.707-48.602.216-63.879"/><path d="M625.479 751.319c115.442-63.592 231.645-123.733 341.12-184.946 101.271-56.634 190.32-110.007 258.822-165.64 55.962-45.479 95.728-92.144 101.559-136.021 4.999-38.003-21.113-76.761-59.528-103.892"/><path d="M682.914 706.913c90.543-94.074 179.527-182.538 255.866-269.722 67.747-77.394 121.813-148.522 145.929-215.421 19.081-53.054 10.416-107.669-23.856-137.917-39.35-34.649-104.284-50.153-177.088-54.244M403.845 717.202c-49.939-59.78-91.777-119.298-120.395-178.78-26.003-54.096-40.504-108.59-38.957-158.982 2.971-94.054 71.663-179.989 163.502-234.953"/><path d="M362.213 624.137c-24.745-147.499-13.372-290.59 47.652-396.376 57.867-100.1 166.529-168.531 287.808-190.217"/><path d="M366.68 523.18c27.099-112.452 69.206-215.124 125.773-299.154 51.964-77.12 116.571-137.508 187.343-169.589"/><path d="M461.861 363.166c56.264-51.878 112.197-99.209 165.453-142.765 48.998-40.071 93.668-75.2 132.154-106.339M599.689 299.259c148.563-2.399 302.059-2.399 450.621 0"/><path d="M599.689 299.259c174.485-2.817 353.449-2.413 521.218 1.358 75.183 1.693 142.45 3.972 200.445 7.172 47.747 2.637 84.529 5.253 109.363 9.807M550.172 308.325c95.466-32.742 188.43-61.768 274.828-89.695 77.641-25.098 144.479-47.218 197.446-69.728M455.716 368.985c52.369-50.931 104.731-97.652 155.072-140.724 46.699-39.953 89.938-75.262 128.16-106.605 59.75-48.999 111.169-87.402 98.414-93.977M576.288 301.528c91.792-16.146 183.98-30.445 273.895-44.035 85.347-12.899 164.169-24.418 234.527-35.722 60.705-9.755 110.749-18.406 148.882-28.174 27.001-6.923 47.345-14.827 45.574-22.721"/><path d="M523.978 319.428c96.753-48.79 189.108-91.253 271.02-131.407 69.869-34.255 125.94-62.646 161.094-91.605 22.611-18.65 25.757-42.923 9.094-51.598-26.215-13.605-68.437-16.156-118.345-16.231"/><path d="M636.514 303.828c-50.036-13.785-95.607-27.047-136.091-40.485-35.714-11.858-66.191-23.339-90.558-35.581-35.248-17.725-51.254-44.604-37.785-58.635M701.164 344.1c-44.02-46.636-80.035-90.341-102.724-132.385-18.915-35.088-27.318-70.072-18.963-97.435 16.495-53.704 100.679-80.934 194.445-85.054"/><path d="M714.202 359.566c-37.105-49.193-67.523-95.375-86.888-139.165-16.589-37.55-24.339-73.628-17.773-103.081M723.261 372.631c62.237 97.662 140.775 199.204 221.824 308.275"/><path d="M652.62 309.465c75.395 32.228 159.485 64.579 249.258 99.331 93.516 36.201 188.569 73.071 281.563 112.816 90.051 38.494 174.053 77.746 247.547 120.684 65.803 38.462 120.625 78.193 155.998 122.153M372.719 171.315c22.697-5.077 56.995-7.821 101.515-10.563 53.829-3.312 115.735-5.496 184.05-6.903M430.488 142.863C501.236 105.348 573.75 76.88 643.1 56.534c62.032-18.186 116.473-28.927 159.865-29.03"/><path d="M372.719 171.315c19.224-4.301 47.355-6.86 83.459-9.38 43.53-3.036 93.779-5.201 149.721-6.803 124.332-3.555 256.684-3.937 385.816-1.283M395.223 161.325c102.845-51.957 216.379-83.649 316.616-108.147 41.068-10.033 74.584-17.223 99.398-22.154 15.409-3.061 21.226-3.789 17.358-2.956"/><path d="M372.719 171.315c14.414-3.225 34.38-5.417 59.419-7.536 29.881-2.527 64.362-4.502 103.005-6.153 87.841-3.75 186.165-5.432 289.856-5.433 103.691.002 202.015 1.684 289.856 5.433 38.643 1.651 73.124 3.626 103.005 6.153 25.039 2.119 45.005 4.311 59.419 7.536M384.096 166.771c65.732-30.689 145.495-52.119 228.632-71.531C693.062 76.491 765.692 63.055 825 51.433c42.948-8.418 78.4-12.921 74.045-19.297-6.064-8.67-34.517-3.998-68.834-3.408"/><path d="M382.547 160.82c-38.414 27.131-64.527 65.889-59.528 103.892 5.831 43.877 45.598 90.542 101.559 136.021 68.502 55.633 157.551 109.006 258.822 165.64 109.475 61.213 225.678 121.354 341.12 184.946"/><path d="M370.835 170.875c-1.771 7.894 18.573 15.798 45.574 22.721 38.133 9.768 88.177 18.419 148.882 28.174 70.358 11.304 149.18 22.823 234.527 35.722 89.915 13.591 182.103 27.889 273.895 44.035"/><path d="M374.07 167.276c-14.768 12.715-22.17 30.932-16.068 46.281 7.61 19.073 30.061 37.202 60.148 55.03 37.291 22.083 84.872 42.978 140.637 64.867 62.821 24.653 132.948 49.129 208.667 74.866 162.912 55.37 333.136 109.73 493.444 173.71 74.65 29.803 143.09 60.15 202.537 93.06 52.861 29.277 96.882 59.471 126.48 92.835"/><path d="M370.975 171.342c5.758 4.039 19.241 5.513 38.253 8.046 25.163 3.35 56.512 6.472 93.749 9.956 42.802 4.005 90.773 8.177 143.353 12.841 56.57 5.018 116.403 10.409 178.67 16.444 128.451 12.454 255.842 26.245 373.974 44.374 53.672 8.241 102.525 16.962 145.523 27.021 37.141 8.694 67.851 17.6 90.069 28.982M783.98 28.865C727.714 30.463 678.097 37.6 643.1 56.534c-27.864 15.107-42.416 45.818-33.182 74.94"/><path d="M766.235 29.609C693.431 33.7 628.497 49.205 589.147 83.854c-34.272 30.248-42.938 84.863-23.856 137.917 24.116 66.899 78.183 138.027 145.929 215.421 76.339 87.184 165.323 175.648 255.866 269.722"/><path d="M803.158 28.587c-49.908.075-92.129 2.626-118.345 16.231-16.663 8.675-13.517 32.948 9.094 51.598 35.154 28.959 91.225 57.35 161.094 91.605 81.913 40.154 174.267 82.617 271.02 131.407"/><path d="M797.862 28.613c-76.75.659-146.465 14.54-146.682 46.133-.071 17.522 18.129 38.03 44.002 59.063 33.132 26.917 77.443 54.354 129.818 84.821 59.117 34.384 125.035 70.237 195.139 109.349 73.332 40.915 148.093 83.531 221.157 129.568 141.488 89.174 266.354 182.411 334.38 290.739"/><path d="M815.206 28.659c-49.045-.627-95.147-.431-92.21 12.039 1.618 6.693 15.684 12.12 34.372 18.987 25.233 9.269 57.558 18.843 96.066 30.009 93.062 26.982 202.468 56.785 316.263 97.127 111.487 39.543 212.519 81.603 276.467 140.954"/><path d="M812.098 28.624c-33.908-.319-62.97.549-84.919 5.226-14.768 3.154-22.026 12.883-15.34 19.328 12.833 12.339 39.538 22.878 75.231 36.387 44.92 16.996 99.069 35.008 160.436 55.954"/><path d="M819.788 28.728c-34.317-.591-62.77-5.262-68.834 3.408C746.6 38.511 782.052 43.015 825 51.433c59.308 11.622 131.938 25.058 212.272 43.808 83.137 19.412 162.901 40.842 228.632 71.531M658.284 153.849c109.966-2.261 223.466-2.261 333.432 0"/><path d="M767.626 107.031c43.582-40.013 80.296-71.411 70.306-78.996M658.284 153.849c129.132-2.654 261.485-2.273 385.816 1.283 55.942 1.602 106.191 3.767 149.721 6.803 36.105 2.52 64.235 5.08 83.459 9.38"/><path d="M702.494 145.519c61.367-20.946 115.516-38.959 160.436-55.954 35.694-13.509 62.398-24.048 75.231-36.387 6.686-6.445-.572-16.174-15.34-19.328-21.949-4.676-51.012-5.545-84.919-5.226M610.365 114.269c-8.821 27.96-5.195 62.684 6.909 98.915 13.978 41.786 38.328 86.237 69.018 133.419 70.501 108.33 166.368 220.559 265.744 343.263"/><path d="M627.554 148.901c52.967 22.51 119.805 44.629 197.446 69.728 86.398 27.927 179.362 56.954 274.828 89.695"/><path d="M616.853 142.177c38.349 35.554 99.081 69.939 173.953 109.534 86.883 45.938 184.905 93.284 287.672 146.333 105.175 54.298 208.018 110.387 300.239 172.89 84.917 57.579 156.56 117.582 200.888 183.406M642.19 152.888c61.389 9.326 130.089 19.055 204.421 30.18 78.273 11.715 158.435 24.263 238.099 38.703 77.336 14.021 149.971 28.929 215.14 46.544 57.098 15.442 104.631 31.244 137.153 52.107M825 28.826"/><path d="M807.675 41.024c-3.491 15.277-2.493 36.93.216 63.879 3.287 32.654 9.346 70.625 17.109 113.726 8.667 48.11 19.187 100.695 30.759 157.472 12.342 60.554 25.585 124.329 38.938 190.913M812.639 27.679c-12.755 6.575 38.663 44.979 98.414 93.977 38.222 31.343 81.461 66.652 128.16 106.605 50.341 43.072 102.702 89.793 155.072 140.724"/><path d="M813.954 27.254c-6.552 1.166 21.729 23.86 61.487 50.725 56.347 38.071 128.169 84.916 209.268 143.792 184.628 134.073 373.302 293.356 470.656 489.537M819.449 27.663c-3.37-.655-2.748.122 2.08 1.692 8.89 2.89 21.906 6.777 38.849 11.982 45.161 13.874 103.757 32.348 172.338 57.455 157.598 57.719 323.885 127.549 424.481 240.379"/><path d="M812.068 28.035c-9.99 7.585 26.724 38.983 70.306 78.996M821.405 28.068c-3.868-.833 1.949-.105 17.358 2.956 24.815 4.931 58.331 12.121 99.398 22.154 100.237 24.498 213.771 56.19 316.616 108.147M1118.654 776.549c119.493.185 226.917.47 319.399.903 39.899.187 75.256.394 105.885.642 25.757.209 46.538.422 62.275.713M1235.125 729.202c68.551-67.806 125.338-135.228 160.68-203.435 30.942-59.785 43.514-122.14 31.582-175.97"/><path d="M1283.32 523.18c-27.099-112.452-69.206-215.124-125.773-299.154-51.964-77.12-116.571-137.508-187.343-169.589"/><path d="M1246.155 717.202c49.939-59.78 91.777-119.298 120.395-178.78 26.003-54.096 40.504-108.59 38.957-158.982-2.971-94.054-71.663-179.989-163.502-234.953"/><path d="M1287.787 624.137c24.745-147.499 13.372-290.59-47.652-396.376-57.867-100.1-166.529-168.531-287.808-190.217M889.175 519.486c-3.784-111.93-9.437-213.054-17.766-300.762-3.644-38.349-7.685-72.707-12.426-102.816-4.088-25.949-8.416-47.585-13.819-64.423"/><path d="M1050.311 299.259c92.029 1.489 175.121 3.791 247.034 7.287 59.041 2.873 103.992 5.664 133.371 11.051M935.798 359.566c37.105-49.193 67.523-95.375 86.888-139.165 16.589-37.55 24.339-73.628 17.773-103.081M1013.486 303.828c50.036-13.785 95.607-27.047 136.091-40.485 35.714-11.858 66.191-23.339 90.557-35.581 35.248-17.725 51.254-44.604 37.785-58.635"/><path d="M948.836 344.1c44.02-46.636 80.035-90.341 102.724-132.385 18.915-35.088 27.318-70.072 18.963-97.435-16.495-53.704-100.679-80.934-194.445-85.054M1156.318 337.56c167.898 116.665 326.544 243.646 409.943 394.65"/><path d="M1188.139 363.166c-56.264-51.878-112.197-99.209-165.453-142.765-48.998-40.071-93.668-75.2-132.154-106.339M1569.097 538.306c-85.414-219.904-275.473-399.017-500.051-471.253"/><path d="M1559.967 720.405c-66.415-128.461-181.395-243.196-309.369-347.51-63.545-51.779-127.924-98.799-190.122-142.24-57.929-40.456-111.368-75.92-157.991-107.712"/><path d="M1519.136 628.519c-61.178-154.213-161.317-292.137-279.001-400.757-55.903-51.566-114.309-95.047-173.146-128.883-54.477-31.31-108.12-53.696-158.602-64.474"/><path d="M1482.528 528.828c-76.443-221.617-246.047-402.804-446.531-469.782"/><path d="M1433.419 373.69c-27.097-98.759-107.366-182.126-206.671-238.048"/><path d="M1442.155 324.245c-47.274-39.103-119.07-68.433-202.02-96.483-90.128-30.462-185.081-55.152-278.287-78.033"/><path d="M1479.474 367.292c-75.793-105.149-192.794-186.677-317.531-247.049-60.025-29.033-119.256-51.705-175.332-67.998-50.362-14.623-95.39-23.546-133.14-24.64"/><path d="M1490.341 382.998c-71.385-107.144-180.8-193.334-300.99-256.036"/><path d="M991.716 153.849c68.315 1.407 130.221 3.59 184.05 6.903 44.52 2.742 78.817 5.486 101.515 10.563M1040.082 131.474c9.234-29.122-5.317-59.833-33.182-74.94-34.997-18.934-84.614-26.071-140.88-27.669M825 28.826"/><path d="M847.035 27.504c43.392.103 97.833 10.844 159.865 29.03 69.35 20.346 141.863 48.814 212.612 86.329"/></g></svg>