<svg xmlns="http://www.w3.org/2000/svg" version="1.1" xmlns:xlink="http://www.w3.org/1999/xlink" xmlns:svgjs="http://svgjs.dev/svgjs" viewBox="0 0 800 800" opacity="1"><defs><filter id="bbburst-blur-1" x="-100%" y="-100%" width="400%" height="400%"><feGaussianBlur in="SourceGraphic" stdDeviation="1"></feGaussianBlur></filter><filter id="bbburst-blur-2" x="-100%" y="-100%" width="400%" height="400%"><feGaussianBlur in="SourceGraphic" stdDeviation="2"></feGaussianBlur></filter><filter id="bbburst-blur-3" x="-100%" y="-100%" width="400%" height="400%"><feGaussianBlur in="SourceGraphic" stdDeviation="4"></feGaussianBlur></filter><filter id="bbburst-blur-4" x="-100%" y="-100%" width="400%" height="400%"><feGaussianBlur in="SourceGraphic" stdDeviation="12"></feGaussianBlur></filter><symbol id="bbburst-shape-1" viewBox="0 0 194 167"><path d="m97 0 96.129 166.5H.871L97 0Z"></path></symbol><symbol id="bbburst-shape-3" viewBox="0 0 131 127"><path d="m66 0 66 63.5L66 127 0 63.5 66 0Z"></path></symbol><symbol id="bbburst-shape-4" viewBox="0 0 149 143"><path d="M71.647 2.781c.898-2.764 4.808-2.764 5.706 0l15.445 47.534a3 3 0 0 0 2.853 2.073h49.98c2.906 0 4.115 3.719 1.764 5.427L106.96 87.193a2.999 2.999 0 0 0-1.09 3.354l15.445 47.534c.898 2.764-2.266 5.062-4.617 3.354l-40.435-29.378a3 3 0 0 0-3.526 0l-40.435 29.378c-2.351 1.708-5.515-.59-4.617-3.354L43.13 90.547a3 3 0 0 0-1.09-3.354L1.605 57.815c-2.35-1.708-1.142-5.427 1.764-5.427h49.98a3 3 0 0 0 2.853-2.073L71.647 2.781Z"></path></symbol><symbol id="bbburst-shape-8" viewBox="0 0 87 168"><path d="m12 12 31.2546 18.0749c16.4102 9.4902 20.014 31.6325 7.4603 45.8369L36.3296 92.1884c-12.5684 14.2206-8.9394 36.3916 7.5068 45.8636L75 156" stroke-width="14" stroke-linecap="round" stroke-linejoin="round"></path></symbol><symbol id="bbburst-shape-10" viewBox="0 0 145 145"><circle cx="72.5" cy="72.5" r="61.5" fill="none" stroke-width="22"></circle></symbol></defs><use xlink:href="#bbburst-shape-4" width="39.51249820559252" opacity="0.7299256714343507" transform="matrix(0.9310161707555532,0.36497793055425487,-0.36497793055425487,0.9310161707555532,666.8588415365533,349.9734108752405)" fill="#000000"></use><use xlink:href="#bbburst-shape-10" width="50.78084555384392" opacity="0.2946779483510128" transform="matrix(0.737349643261084,0.6755112904924331,-0.6755112904924331,0.737349643261084,349.28475773935673,421.5991708915626)" fill="none" stroke="#000000" filter="url(#bbburst-blur-2)"></use><use xlink:href="#bbburst-shape-1" width="27.39884626658729" opacity="0.7985762263453176" transform="matrix(0.9737726450769029,-0.22752326408508705,0.22752326408508705,0.9737726450769029,496.950686552191,380.67726287116517)" fill="#000000"></use><use xlink:href="#bbburst-shape-10" width="45.98478228636599" opacity="0.6888347508095225" transform="matrix(0.9218080400687261,-0.3876466654888881,0.3876466654888881,0.9218080400687261,378.96705075392856,248.0785233176356)" fill="none" stroke="#000000"></use><use xlink:href="#bbburst-shape-10" width="20.275364286003946" opacity="0.8439497409074008" transform="matrix(0.9846167066363796,-0.1747281918081042,0.1747281918081042,0.9846167066363796,692.4632119440034,254.3460162730051)" fill="none" stroke="#000000"></use><use xlink:href="#bbburst-shape-4" width="63.69120527271357" opacity="0.40813989459055977" transform="matrix(0.9865446592128743,0.1634920040202386,-0.1634920040202386,0.9865446592128743,419.81841424394804,-22.587310943739908)" fill="#000000" filter="url(#bbburst-blur-2)"></use><use xlink:href="#bbburst-shape-8" width="56.30633296584738" opacity="0.2141331948795343" transform="matrix(0.9186420744970912,-0.3950907983789051,0.3950907983789051,0.9186420744970912,313.48028379534423,-281.5974071824626)" fill="none" stroke="#000000" filter="url(#bbburst-blur-3)"></use><use xlink:href="#bbburst-shape-10" width="17.8573371897801" opacity="0.890480186836594" transform="matrix(0.9181593766678675,-0.3962112555656047,0.3962112555656047,0.9181593766678675,601.773106639538,331.39520791682196)" fill="none" stroke="#000000"></use><use xlink:href="#bbburst-shape-3" width="99.96946162567883" opacity="0.009807738483675776" transform="matrix(0.7172089176315664,-0.6968582126012128,0.6968582126012128,0.7172089176315664,-225.18717985616166,-141.65869601775296)" fill="#000000" filter="url(#bbburst-blur-3)"></use><use xlink:href="#bbburst-shape-10" width="33.21709872053559" opacity="0.6606197745713986" transform="matrix(0.9643128623895648,0.2647653743034467,-0.2647653743034467,0.9643128623895648,553.5457091367226,364.5868147236166)" fill="none" stroke="#000000"></use><use xlink:href="#bbburst-shape-3" width="24.40844792251883" opacity="0.6722269649011063" transform="matrix(0.8524298756546485,-0.5228415697813255,0.5228415697813255,0.8524298756546485,547.7329089845742,139.3145821860948)" fill="#000000"></use><use xlink:href="#bbburst-shape-4" width="44.86051236340084" opacity="0.4367269139269546" transform="matrix(0.9990965402655697,0.04249827325161403,-0.04249827325161403,0.9990965402655697,268.06709368766684,199.31684081158477)" fill="#000000" filter="url(#bbburst-blur-2)"></use><use xlink:href="#bbburst-shape-3" width="32.60383230317944" opacity="0.7770470002602443" transform="matrix(0.9197844569132239,-0.3924239452694572,0.3924239452694572,0.9197844569132239,437.5309938600433,322.51761623898886)" fill="#000000"></use><use xlink:href="#bbburst-shape-8" width="38.44039891791947" opacity="0.46166563618869627" transform="matrix(0.8569984801218913,0.5153189352903388,-0.5153189352903388,0.8569984801218913,922.2005861839546,-86.79536732307076)" fill="none" stroke="#000000" filter="url(#bbburst-blur-1)"></use><use xlink:href="#bbburst-shape-4" width="47.40688149869441" opacity="0.24664766116273784" transform="matrix(0.8047059589053218,-0.5936735800945386,0.5936735800945386,0.8047059589053218,436.68087629667565,-253.51907125558472)" fill="#000000" filter="url(#bbburst-blur-3)"></use><use xlink:href="#bbburst-shape-4" width="22.86387807798686" opacity="0.7985514162078338" transform="matrix(0.9306375963884724,0.36594215962128057,-0.36594215962128057,0.9306375963884724,875.1848054270845,231.4460256764362)" fill="#000000"></use><use xlink:href="#bbburst-shape-1" width="19.947542598469198" opacity="0.8962541686973663" transform="matrix(0.8696285681899047,-0.49370654582249174,0.49370654582249174,0.8696285681899047,520.1789849204433,384.05529479424877)" fill="#000000"></use><use xlink:href="#bbburst-shape-8" width="31.400145550450375" opacity="0.7441606574267849" transform="matrix(0.9096893789169586,-0.4152893375535642,0.4152893375535642,0.9096893789169586,568.4280356525453,191.97523762796038)" fill="none" stroke="#000000"></use><use xlink:href="#bbburst-shape-8" width="63.992277074134456" opacity="0.27624355448279125" transform="matrix(0.9815704007695126,0.19110088522342975,-0.19110088522342975,0.9815704007695126,176.13010328575348,124.86789445889633)" fill="none" stroke="#000000" filter="url(#bbburst-blur-2)"></use><use xlink:href="#bbburst-shape-4" width="54.65058518398375" opacity="0.5769113450942873" transform="matrix(0.9352268380150508,0.35404909469785395,-0.35404909469785395,0.9352268380150508,616.2742380273935,117.71704441102128)" fill="#000000" filter="url(#bbburst-blur-1)"></use><use xlink:href="#bbburst-shape-10" width="55.8385433829969" opacity="0.5588114047733251" transform="matrix(0.7949026883939699,0.6067369413378743,-0.6067369413378743,0.7949026883939699,585.6597385315938,390.53484502188735)" fill="none" stroke="#000000" filter="url(#bbburst-blur-1)"></use><use xlink:href="#bbburst-shape-10" width="26.834932889559077" opacity="0.8387271460295815" transform="matrix(0.8628957082836322,-0.5053820303747343,0.5053820303747343,0.8628957082836322,482.7848814342908,337.9298790841788)" fill="none" stroke="#000000"></use><use xlink:href="#bbburst-shape-3" width="63.094489695149626" opacity="0.43811439935410845" transform="matrix(0.9670710468861655,-0.2545065623407301,0.2545065623407301,0.9670710468861655,109.84275716121951,352.1037788441636)" fill="#000000" filter="url(#bbburst-blur-2)"></use><use xlink:href="#bbburst-shape-10" width="76.38365298411279" opacity="0.20498445174410118" transform="matrix(0.9085591333655354,-0.4177562700643371,0.4177562700643371,0.9085591333655354,19.15891061591492,-92.22883201158362)" fill="none" stroke="#000000" filter="url(#bbburst-blur-3)"></use><use xlink:href="#bbburst-shape-8" width="48.71585424441942" opacity="0.6149565412398124" transform="matrix(0.9999327621510632,0.011596170788034297,-0.011596170788034297,0.9999327621510632,431.7096310802559,236.17286137171658)" fill="none" stroke="#000000" filter="url(#bbburst-blur-1)"></use><use xlink:href="#bbburst-shape-10" width="19.518099088760287" opacity="0.9211262520040235" transform="matrix(0.9820980267422732,0.18837055467597189,-0.18837055467597189,0.9820980267422732,790.4352801272555,381.9414884698291)" fill="none" stroke="#000000"></use><use xlink:href="#bbburst-shape-10" width="50.626621156731794" opacity="0.3733831447426684" transform="matrix(0.8578433577383366,0.513911250688498,-0.513911250688498,0.8578433577383366,751.9108877618729,-138.25702629452542)" fill="none" stroke="#000000" filter="url(#bbburst-blur-2)"></use><use xlink:href="#bbburst-shape-1" width="17.398621164015786" opacity="0.8644848634603055" transform="matrix(0.9917516476826396,0.12817437075628463,-0.12817437075628463,0.9917516476826396,708.5213379991575,382.79736431332543)" fill="#000000"></use><use xlink:href="#bbburst-shape-3" width="36.90206153779741" opacity="0.6445222267751474" transform="matrix(0.9338528660277531,0.3576574123539893,-0.3576574123539893,0.9338528660277531,815.6518043750857,81.79504728130308)" fill="#000000" filter="url(#bbburst-blur-1)"></use><use xlink:href="#bbburst-shape-8" width="72.58033560049688" opacity="0.11740118966419366" transform="matrix(0.9809709670096841,-0.19415447943347908,0.19415447943347908,0.9809709670096841,177.1916803180899,-305.9967586865372)" fill="none" stroke="#000000" filter="url(#bbburst-blur-3)"></use><use xlink:href="#bbburst-shape-8" width="18.840684571359695" opacity="0.9358368897741682" transform="matrix(0.9895223342095599,0.14437988121779285,-0.14437988121779285,0.9895223342095599,824.8470506703437,343.15906418492887)" fill="none" stroke="#000000"></use><use xlink:href="#bbburst-shape-10" width="24.96518488882812" opacity="0.7716565458919795" transform="matrix(0.8917138979662641,0.45259951853024666,-0.45259951853024666,0.8917138979662641,828.500745746756,258.37604015123634)" fill="none" stroke="#000000"></use><use xlink:href="#bbburst-shape-8" width="50.06340201951663" opacity="0.22819271816564524" transform="matrix(0.9980110061969166,-0.06303991996995204,0.06303991996995204,0.9980110061969166,1.9371042884317689,211.62664213539574)" fill="none" stroke="#000000" filter="url(#bbburst-blur-3)"></use><use xlink:href="#bbburst-shape-4" width="16.833543091085442" opacity="0.96918358200732" transform="matrix(0.9695426263287082,-0.244922632134376,0.244922632134376,0.9695426263287082,669.7880826932002,395.03664147453355)" fill="#000000"></use><use xlink:href="#bbburst-shape-8" width="37.223084591196965" opacity="0.6031004894178925" transform="matrix(0.9328784354358096,0.36019137232703957,-0.36019137232703957,0.9328784354358096,723.1133568367331,79.44576651969908)" fill="none" stroke="#000000" filter="url(#bbburst-blur-1)"></use><use xlink:href="#bbburst-shape-4" width="36.43921780631475" opacity="0.35366490991082755" transform="matrix(0.9433016216988838,0.33193681703037403,-0.33193681703037403,0.9433016216988838,833.1757130019755,-224.39810240555283)" fill="#000000" filter="url(#bbburst-blur-2)"></use><use xlink:href="#bbburst-shape-8" width="52.41973223846081" opacity="0.3357347914731956" transform="matrix(0.7201659834608741,0.693801813391859,-0.693801813391859,0.7201659834608741,508.1915771547365,121.93068230672526)" fill="none" stroke="#000000" filter="url(#bbburst-blur-2)"></use><use xlink:href="#bbburst-shape-4" width="36.66972508903399" opacity="0.572036444488514" transform="matrix(0.8991109971041361,-0.43772070420121334,0.43772070420121334,0.8991109971041361,560.7105299899057,23.11757087033277)" fill="#000000" filter="url(#bbburst-blur-1)"></use><use xlink:href="#bbburst-shape-8" width="75.63976614381237" opacity="0.2959199078696302" transform="matrix(0.9997662550695537,0.02162025032694944,-0.02162025032694944,0.9997662550695537,369.0776091542253,-178.92668274476463)" fill="none" stroke="#000000" filter="url(#bbburst-blur-2)"></use><use xlink:href="#bbburst-shape-1" width="40.997120348450245" opacity="0.7009762040073194" transform="matrix(0.8355719087380232,-0.5493810929836379,0.5493810929836379,0.8355719087380232,402.28769371514977,225.00744052967343)" fill="#000000"></use><use xlink:href="#bbburst-shape-8" width="57.729096186907825" opacity="0.47484161223936205" transform="matrix(0.9544254987003441,0.29844927111755426,-0.29844927111755426,0.9544254987003441,608.5551591973539,-32.59101114971605)" fill="none" stroke="#000000" filter="url(#bbburst-blur-1)"></use><use xlink:href="#bbburst-shape-8" width="64.33029693940267" opacity="0.5029232913572914" transform="matrix(0.9399172385622053,0.34140237939065143,-0.34140237939065143,0.9399172385622053,490.6362334738878,140.49855129697636)" fill="none" stroke="#000000" filter="url(#bbburst-blur-1)"></use><use xlink:href="#bbburst-shape-10" width="68.70527976844885" opacity="0.14494130492146395" transform="matrix(0.9038194853840725,0.42791393742208306,-0.42791393742208306,0.9038194853840725,213.12971383226431,-26.355401706913312)" fill="none" stroke="#000000" filter="url(#bbburst-blur-3)"></use><use xlink:href="#bbburst-shape-4" width="19.237161286941756" opacity="0.8524540731944341" transform="matrix(0.9932101597796527,-0.11633390954694557,0.11633390954694557,0.9932101597796527,612.4422924149245,336.8844260862687)" fill="#000000"></use><use xlink:href="#bbburst-shape-10" width="43.353825286245204" opacity="0.5193156005349289" transform="matrix(0.9991381727409725,-0.041507972388814346,0.041507972388814346,0.9991381727409725,603.0208448428393,-52.48027658964378)" fill="none" stroke="#000000" filter="url(#bbburst-blur-1)"></use></svg>